<?xml version="1.0" encoding="utf-8"?>
<svg version="1.1" id="smoking-shop-logo" xmlns="http://www.w3.org/2000/svg" xmlns:xlink="http://www.w3.org/1999/xlink" x="0px" y="0px"
	 viewBox="0 0 841.9 595.3" style="enable-background:new 0 0 841.9 595.3;" xml:space="preserve">
<g>
	<path class="st0" d="M750.3,279.4c-6.2-8.9-16.1-14-27.1-14c-2.4,0-4.8,0.3-7.2,0.8c-2.2-0.5-4.5-0.8-6.9-0.8
		c-5.3,0-10,1.3-13.7,2.9c-4.1-1.9-9.2-3.2-15.3-3.2c-6,0-11.5,1.3-16.4,3.7c-1-3.6-2.6-6.9-5-9.8c-5.2-6.4-13-10-21.8-10
		c-3.1,0-6,0.5-8.6,1.2c-5.8-3.6-12.8-5.6-20.3-5.6c-18.1,0-33,10.9-38.3,26.5c-3.9-2.6-8.5-4.1-13.4-4.1c-4.5,0-8.8,1.3-12.4,3.5
		c0,0-0.1-0.1-0.1-0.1c-4.9-3.2-10.9-5-16.9-5c-1.8,0-3.7,0.2-5.4,0.5c-2.4-0.5-5.1-0.8-8-0.8c-5.8,0-11.4,1.3-16.5,3.9
		c-4.3-2.3-9.1-3.6-14.2-3.6c-2.4,0-4.8,0.3-7.1,0.8c-1.2-2.5-2.7-4.8-4.6-6.9c-5.4-6-13.3-9.5-21.5-9.5c-5.5,0-10.9,1.6-15.5,4.4
		c-4.7-3.4-10.4-5.2-16.7-5.2c-12.4,0-20.8,6.7-23.6,8.9c0,0,0,0-0.1,0.1c-2.5,2-4.6,4.4-6.2,7.1c-5.9,0.2-11.3,1.6-16.2,4.1
		c-4.5-2.5-9.6-3.8-15-3.8c-2.8,0-6,0.4-9.5,1.4c-2.9-0.9-5.9-1.4-8.9-1.4c-1.7,0-3.9,0.1-6.2,0.6c-1.6-3.9-4-7.5-7-10.6
		c-6.8-7-16.3-10.8-26.8-10.8c-14.1,0-26.2,6.6-33.4,16.9l-0.4-3.9l-4.3-4.4l-1.4-6l-4.9-3.8l-2.1-5.8l-5.3-3.1l-2.8-5.5l-5.6-2.5
		l-3.5-5.1l-5.9-1.7l-4.1-4.6l-6.1-1l-4.6-4.1l-6.1-0.2l-5.1-3.4l-6.1,0.6l-5.5-2.8l-6,1.3l-5.8-2.1l-5.8,2.1l-6-1.3l-5.5,2.8
		l-6.1-0.6l-5.1,3.4l-6.1,0.2l-4.6,4.1l-6.1,1l-4.1,4.6l-5.9,1.7l-3.5,5.1l-5.6,2.5l-2.8,5.5l-5.3,3.1l-2.1,5.8l-4.8,3.8l-1.4,6
		l-4.3,4.4l-0.6,6.1l-3.8,4.9l0.2,6.1l-3.1,5.3l0.9,6.1l-2.4,5.6l1.7,5.9l-1.7,5.9l2.4,5.6l-0.9,6.1l3.1,5.3l-0.2,6.1l3.8,4.9
		l0.6,6.1l4.3,4.4l1.4,6l4.8,3.8l2.1,5.8l5.3,3.1l2.8,5.5l5.6,2.5l3.5,5.1l5.9,1.7l4.1,4.6l6.1,1l4.6,4l6.1,0.2l5.1,3.4l6.1-0.6
		l5.5,2.8l6-1.3l5.8,2.1l5.8-2.1l6,1.3l5.5-2.8l6.1,0.6l5.1-3.4l6.1-0.2l4.6-4l6.1-1l4.1-4.6l5.9-1.7l3.5-5.1l5.6-2.5l2.8-5.5
		l5.3-3.1l2.1-5.8l4.9-3.8l1.2-5.3c7.3,6.7,17,10.4,27.6,10.4c3.6,0,44.1,0,70.5,0v14.5c0,5.7,4.7,10.4,10.4,10.4h114.5
		c5.1,3.1,11,4.7,17.2,4.7c6.7,0,13-1.6,18.7-4.7h160.3c4.5,2.6,9.9,4.1,15.3,4.1c6.4,0,12.4-1.8,17.5-5.3
		c6.2-4.3,10.5-10.8,12.2-18.4c0-0.1,0-0.1,0-0.2l1.6-7.5c19.5-7.1,31.8-28.5,31.8-48.7C757,293.5,754.7,285.6,750.3,279.4z"/>
	<polygon class="st1" points="556.4,290.7 561.1,300.2 571.6,301.8 564,309.1 565.8,319.6 556.4,314.6 547.1,319.6 548.9,309.1 
		541.3,301.8 551.8,300.2 	"/>
	<g>
		<path class="st1" d="M299.6,284c0.9,2.2,3.3,3.1,4.5,3.1c4,0,6.4-3.6,6.4-7.7c0-5.2-3.8-11.1-12.7-11.1c-9.6,0-16.6,6.5-16.6,15.3
			c0,14.5,15.7,16.2,15.7,28.8c0,5.8-3.1,10.9-9.5,10.9c-5.4,0-8.2-4.2-8.2-8.3c0-4.5,3.9-7.9,9-6.2c0.4-0.9,0.5-1.7,0.5-2.5
			c0-3-2.6-4.9-5.2-4.9c-8.2,0-12.5,6.4-12.5,13c0,7.3,5.1,14.9,16,14.9c11.8,0,20.7-7.1,20.7-19.3c0-13.5-16.4-16.6-16.4-27.9
			c0-5,2.5-9.5,7.4-9.5c3.3,0,4.8,2.4,4.8,5C303.6,280.3,302.1,283.2,299.6,284z"/>
		<path class="st1" d="M448.5,284.5c3.1,0,5.6-2.4,6.1-5.5c0.3-3.1-2-5.5-5-5.5s-5.6,2.4-6,5.5C443.1,282.1,445.4,284.5,448.5,284.5
			z"/>
		<path class="st1" d="M530.7,290.2c-0.9-0.6-2.3-1-3.7-1c-2,0-4,0.7-5.3,2.3c-2-1.7-4.5-2.6-8.1-2.6c-10.9,0-19.8,13.7-19.8,27.4
			c0,0.8,0,1.6,0.1,2.5c-2,1.7-4.9,3.3-7.5,3.3c-1.6,0-2.6-0.9-2.1-3.2l3.9-18.1c1.8-8.2-1.2-11.5-5.3-11.5c-4.5,0-9.6,3.1-12.9,7.9
			l0.8-3.5c0.7-3-0.9-4.3-3.8-4.3c-3.3,0-6.1,1.6-8.8,3.8c-1.6,1.3-1,3.7,0,4.3c0.7-0.6,1.2-0.9,1.6-0.9c0.7,0,1.1,0.7,0.8,2
			l-4.4,20.6c-2,1.6-4.8,3.1-7.3,3.1c-2,0-3.3-1.4-2.4-5.8l4.8-22.7c0.6-3-0.9-4.3-3.8-4.3c-3.3,0-6.1,1.6-8.8,3.8
			c-1.6,1.3-1,3.7,0,4.3c0.7-0.6,1.2-0.9,1.6-0.9c0.7,0,1,0.7,0.8,2l-4.3,20.5c-1.7,1.5-3.1,2.5-4.5,2.5c-5.4,0-7.7-8.4-8.8-13
			c5-2.4,9.9-7.1,9.8-13.4c0-4.2-1.4-5.9-4.4-5.9c-2.8,0-5.1,1.5-6.1,3.6c0.8,1.2,1.1,2.7,1.1,4.9c0,4.7-2.6,7.6-7.6,9.1l-1.6,0.4
			l6.4-30.1c0.5-3-0.9-4.3-3.8-4.3c-3.3,0-6.1,1.6-8.8,3.8c-1.6,1.3-1,3.7,0,4.3c0.7-0.6,1.2-0.9,1.6-0.9c0.7,0,1.1,0.7,0.8,2
			l-2.4,11.2c-3.2,2.6-6.1,5.9-9.2,7.9c-1.3-2.3-3.5-3.6-6.2-3.6c-4.5,0-6.2,3.9-4.5,8.2c0.9,0.5,2.2,0.9,3.6,1
			c0.2,1.1,0.4,2.2,0.4,3.2c0,7.1-5,12.9-9,12.9c-2.8,0-5.1-2.7-5.1-9.6c0-7.7,4.6-18.2,11.8-18.2c1.9,0,3.5,0.3,5,0.9
			c1.2,0.5,2.5-0.4,2.7-2.2c-2.4-3.5-5.5-4.6-9.4-4.6c-11.9,0-20.1,14.8-20.1,26.7c0,1.1,0.1,2.1,0.2,3.2c-2,1.7-5,3.3-7.5,3.3
			c-1.6,0-2.6-0.9-2.1-3.2l3.9-18.1c2-9.2-3.1-11.5-6.6-11.5c-4.5,0-8.5,3.4-11.8,8.1c0.2-5.6-3.4-8.1-6.6-8.1
			c-4.5,0-8.4,3.2-11.6,7.9l0.8-3.5c0.7-3-0.9-4.3-3.8-4.3c-3.3,0-6.1,1.6-8.8,3.8c-1.6,1.3-1,3.7,0,4.3c0.7-0.6,1.2-0.9,1.6-0.9
			c0.7,0,1.1,0.7,0.8,2l-6.4,30.1c0.9,0.6,2.3,1,3.7,1c2.8,0,5.8-1.3,6.6-5l4.8-22.4c2.1-2.5,4.4-4.1,7.2-4.1c2.6,0,2.4,2.1,1.9,4.6
			l-5.5,25.8c1,0.6,2.3,1,3.7,1c2.8,0,5.8-1.3,6.6-5l4.9-22.9c2-2.2,4.2-3.6,6.8-3.6c2.6,0,2.5,2.1,1.9,4.6l-3.3,15.6
			c-2,9.2,2.2,11.1,6.1,11.1c5,0,10.1-3.3,13.7-7.3c1.6,4.3,4.9,7.3,10.4,7.3c9.4,0,20.5-11.9,20.5-23.9c0-0.2,0-0.5-0.1-0.9
			c2.6-1.6,5.1-4.4,7-6.3l-6.3,30c0.9,0.6,2.3,1,3.7,1c2.7,0,5.5-1.3,6.2-5l2.8-13.3l1.8-0.5c1.2,6.1,3.2,18.7,11.1,18.7
			c2.6,0,6.6-2.8,9.6-5.7c0.5,4.2,4.1,5.7,7.2,5.7c4.1,0,8.1-2.2,11.5-5l-0.9,4c0.9,0.6,2.3,1,3.7,1c2.8,0,5.8-1.3,6.6-5l4.8-22.4
			c1.7-2.1,4.9-4.1,7-4.1c1.7,0,2.8,1.3,2.1,4.6l-3.3,15.6c-2,9.2,2.2,11.1,6.1,11.1c5,0,9.9-3.2,13.6-7.1c1.2,3.7,3.7,7.1,8.9,7.1
			c4.2,0,8.2-3,11.5-7.3c-0.6,2.2-1.2,4.2-1.7,6.1c-10.6,3.9-22.9,11.4-22.9,21.1c0,6.5,4.5,9.7,9.3,9.7c12.8,0,18.5-14,22.1-28
			c2.9-0.3,5.7-0.3,8.2,0.2c1-3.1-0.4-6.2-3.6-6.2c-0.9,0-2,0.1-3.2,0.3c0.3-1.4,0.5-2.8,0.9-4.2L530.7,290.2z M499,352
			c-1,0-3.2-0.9-3.2-3.7c0-5.3,7.2-11.1,15.9-14.6C507.7,346.6,504.4,352,499,352z M515.7,316.4c-2.1,2.9-5.4,5-7.9,5
			c-2.4,0-4.2-1.7-4.2-5.6c0-8.6,3.4-21,12.9-21c1.2,0,2.3,0.2,3.7,0.6L515.7,316.4z"/>
		<path class="st1" d="M609.9,284c0.9,2.2,3.3,3.1,4.5,3.1c4,0,6.4-3.6,6.4-7.7c0-5.2-3.8-11.1-12.7-11.1c-9.6,0-16.6,6.5-16.6,15.3
			c0,14.5,15.7,16.2,15.7,28.8c0,5.8-3.1,10.9-9.5,10.9c-5.4,0-8.3-4.2-8.3-8.3c0-4.5,3.8-7.9,9-6.2c0.4-0.9,0.5-1.7,0.5-2.5
			c0-3-2.6-4.9-5.2-4.9c-8.2,0-12.5,6.4-12.5,13c0,7.3,5.1,14.9,16,14.9c11.8,0,20.7-7.1,20.7-19.3c0-13.5-16.4-16.6-16.4-27.9
			c0-5,2.5-9.5,7.4-9.5c3.3,0,4.8,2.4,4.8,5C613.9,280.3,612.4,283.2,609.9,284z"/>
		<path class="st1" d="M723.2,289.1c-3.9,0-7.6,2.4-10.7,6.2l0.4-1.9c0.7-3-0.9-4.3-3.8-4.3c-3.3,0-6.1,1.6-8.8,3.8
			c-3.3,2.7-6.2,6-9.3,8c-1.3-2.3-3.5-3.6-6.2-3.6c-4.5,0-6.2,3.9-4.5,8.2c0.9,0.5,2.2,0.9,3.6,1c0.2,1.1,0.4,2.2,0.4,3.2
			c0,7.1-5,12.9-9,12.9c-2.8,0-5.1-2.7-5.1-9.6c0-7.7,4.6-18.2,11.8-18.2c1.9,0,3.5,0.3,5,0.9c1.2,0.5,2.5-0.4,2.7-2.2
			c-2.4-3.5-5.5-4.6-9.4-4.6c-11.9,0-20.1,14.8-20.1,26.7c0,1.1,0.1,2.1,0.2,3.2c-2,1.7-5,3.3-7.5,3.3c-1.6,0-2.6-0.9-2.1-3.2
			l3.8-18.1c2-9.3-3.5-11.5-7.4-11.5c-4,0-7.5,2.9-10.5,7.1l4.1-19.2c0.6-3-0.9-4.3-3.8-4.3c-4.2,0-9.9,3.8-9.9,5.6
			c0,0.6,0.1,1.4,1.2,2.4c1.3-1.5,2.8-1,2.3,1.1l-10,46.8c0.9,0.6,1.9,0.8,3.3,0.8c2.8,0,5.8-1.3,6.6-5l5-22.3
			c2.1-2.5,4.5-4.2,7.3-4.2c2.6,0,2.4,2.1,1.9,4.6l-3.3,15.6c-2,9.2,2.2,11.1,6.1,11.1c5,0,10.1-3.3,13.8-7.3
			c1.6,4.3,4.9,7.3,10.4,7.3c9.4,0,20.5-11.9,20.5-23.9c0-0.2,0-0.5-0.1-0.9c3.2-2,6.3-5.7,8.3-7.5c0.7-0.6,1.2-0.9,1.6-0.9
			c0.7,0,1.1,0.7,0.8,2l-12.4,59.1c0.9,0.6,2.3,1,3.7,1c2.8,0,5.6-1.3,6.4-5l5.4-26.1c1.6,1.3,3.5,2,5.4,2c13.4,0,22-15.5,22-27.3
			C733.2,295,730.1,289.1,723.2,289.1z M710.7,323.4c-1.3,0-2.5-0.1-3.9-0.9l4.3-20.5c2.6-3.2,5.4-5,7.8-5c2.7,0,4.6,2.4,4.6,7.9
			C723.5,312.7,718.8,323.4,710.7,323.4z"/>
	</g>
	<path class="st1" d="M372.5,354.7h6.1c0.1,0,0.2,0,0.2,0.1c0,0.1,0,0.2,0,0.4l-0.3,1.4c0,0.1-0.1,0.2-0.1,0.3s-0.2,0.1-0.3,0.1h-6
		c-0.1,0-0.2,0-0.3-0.1c0,0,0-0.2,0-0.5l0.3-1.3c0-0.1,0.1-0.2,0.1-0.3C372.3,354.8,372.4,354.7,372.5,354.7z"/>
	<path class="st1" d="M544.1,350.3l0.4-0.9c0-0.1,0.1-0.2,0.1-0.2s0.1,0,0.2,0h1.3c0.1,0,0.1,0.1,0.2,0.1c0,0,0,0.1,0,0.3l-2,9.2
		c-0.1,0.5-0.2,0.9-0.2,1.2c0,0.3-0.1,0.7-0.1,1.1c0,0.5,0,0.9,0.1,1.1c0.1,0.2,0.1,0.4,0.1,0.6c0,0,0,0.1,0,0.1
		c0,0.1,0,0.1-0.1,0.1s-0.1,0.1-0.2,0.1l-1.3,0.5c-0.1,0-0.2,0-0.3,0s-0.1-0.1-0.2-0.2c-0.1-0.2-0.2-0.4-0.3-0.8s-0.1-0.7-0.1-1.1
		c0-0.3,0-0.5,0-0.6c0-0.1,0.1-0.3,0.1-0.5H542c-0.6,1.1-1.4,1.9-2.2,2.4c-0.8,0.5-1.6,0.8-2.4,0.8c-1.1,0-1.9-0.4-2.5-1.1
		c-0.6-0.8-0.9-1.8-0.9-3.2c0-1.1,0.2-2.2,0.4-3.4c0.3-1.2,0.7-2.2,1.1-3.1c0.7-1.4,1.5-2.4,2.5-3.1c1-0.7,1.9-1,3-1
		c0.5,0,1,0.1,1.5,0.3s0.9,0.6,1.3,1.1L544.1,350.3z M542.8,356l0.8-4l0,0c-0.4-0.4-0.8-0.7-1.3-0.9c-0.5-0.2-0.9-0.3-1.3-0.3
		c-0.7,0-1.4,0.3-2,0.8s-1.1,1.4-1.6,2.5c-0.3,0.8-0.6,1.6-0.8,2.6c-0.2,1-0.3,1.8-0.3,2.6c0,0.9,0.1,1.5,0.4,1.9
		c0.3,0.4,0.8,0.6,1.4,0.6c1,0,2-0.6,2.8-1.7C541.8,358.9,542.4,357.6,542.8,356z"/>
	<path class="st1" d="M559.1,350.3l-0.6,1c-0.1,0.1-0.1,0.2-0.2,0.2c0,0-0.1,0-0.1,0c-0.1,0-0.2,0-0.3,0s-0.2-0.1-0.4-0.2
		c-0.3-0.2-0.6-0.3-1-0.4c-0.3-0.1-0.7-0.1-1-0.1c-0.8,0-1.6,0.2-2.3,0.6s-1.2,1-1.6,1.8c-0.5,0.8-0.8,1.7-1.1,2.7
		c-0.3,1-0.4,2-0.3,2.9c0,1,0.2,1.7,0.6,2.2c0.4,0.5,1.1,0.8,2,0.8c0.4,0,0.8,0,1.1-0.1c0.3-0.1,0.9-0.4,1.7-0.9
		c0.2-0.1,0.4-0.2,0.4-0.2c0,0,0.1,0,0.2,0c0,0,0.1,0,0.1,0s0.1,0.1,0.1,0.1l0.4,1c0,0,0,0.1,0,0.1s0,0.1,0,0.1
		c0,0.1-0.1,0.2-0.1,0.2s-0.3,0.2-0.5,0.4c-0.7,0.4-1.3,0.7-2,0.9c-0.7,0.2-1.3,0.3-2.1,0.3c-1.5,0-2.5-0.5-3.2-1.3
		c-0.7-0.9-1-2-1-3.6c0-2.9,0.7-5.3,2.2-7.2s3.3-2.8,5.5-2.8c0.4,0,0.8,0,1.1,0.1s0.8,0.2,1.1,0.3c0.4,0.2,0.7,0.3,0.9,0.4
		c0.2,0.1,0.3,0.3,0.3,0.4c0,0.1,0,0.1,0,0.2C559.1,350.2,559.1,350.3,559.1,350.3z"/>
	<path class="st1" d="M570.6,350.3l-0.6,1c-0.1,0.1-0.1,0.2-0.2,0.2c0,0-0.1,0-0.1,0c-0.1,0-0.2,0-0.3,0s-0.2-0.1-0.4-0.2
		c-0.3-0.2-0.6-0.3-1-0.4c-0.3-0.1-0.7-0.1-1-0.1c-0.8,0-1.6,0.2-2.3,0.6c-0.7,0.4-1.2,1-1.6,1.8c-0.5,0.8-0.8,1.7-1,2.7
		c-0.3,1-0.4,2-0.4,2.9c0,1,0.2,1.7,0.6,2.2s1.1,0.8,2,0.8c0.4,0,0.8,0,1.1-0.1s0.9-0.4,1.7-0.9c0.2-0.1,0.4-0.2,0.4-0.2
		c0,0,0.1,0,0.2,0c0,0,0.1,0,0.1,0c0,0,0.1,0.1,0.1,0.1l0.4,1c0,0,0,0.1,0,0.1s0,0.1,0,0.1c0,0.1-0.1,0.2-0.1,0.2
		c-0.1,0.1-0.3,0.2-0.5,0.4c-0.6,0.4-1.3,0.7-2,0.9c-0.7,0.2-1.3,0.3-2.1,0.3c-1.5,0-2.5-0.5-3.2-1.3c-0.7-0.9-1-2-1-3.6
		c0-2.9,0.7-5.3,2.2-7.2c1.4-1.9,3.3-2.8,5.5-2.8c0.4,0,0.8,0,1.1,0.1c0.4,0.1,0.8,0.2,1.2,0.3c0.4,0.2,0.7,0.3,0.9,0.4
		s0.3,0.3,0.3,0.4c0,0.1,0,0.1,0,0.2C570.7,350.2,570.6,350.3,570.6,350.3z"/>
	<path class="st1" d="M580.6,360.4l0.7,1c0,0.1,0,0.1,0,0.1s0,0,0,0c0,0.1,0,0.2-0.2,0.3c-0.1,0.1-0.3,0.3-0.7,0.5
		c-0.6,0.4-1.3,0.7-2.1,1s-1.6,0.4-2.4,0.4c-0.8,0-1.5-0.1-2-0.3c-0.6-0.2-1.1-0.6-1.5-1.1c-0.5-0.5-0.8-1.1-1-1.7
		c-0.2-0.6-0.3-1.4-0.3-2.3c0-2.8,0.7-5,2.2-6.8c1.5-1.8,3.2-2.7,5.3-2.7c1.2,0,2.1,0.4,2.8,1s1,1.6,1.1,2.8c0,1.6-0.7,2.9-2.1,3.8
		s-3.7,1.4-6.8,1.4h-0.1c0,0.1,0,0.3,0,0.4c0,0.1,0,0.3,0,0.4c0,0.4,0,0.8,0.1,1.1s0.2,0.6,0.3,0.8c0.2,0.5,0.5,0.8,0.9,1.1
		c0.4,0.2,0.9,0.3,1.5,0.3c0.5,0,1.2-0.1,1.8-0.3c0.7-0.2,1.3-0.5,1.9-0.9c0.1-0.1,0.2-0.1,0.3-0.2c0.1,0,0.1-0.1,0.2-0.1
		c0,0,0.1,0,0.1,0.1C580.4,360.3,580.5,360.3,580.6,360.4z M573.7,355.8c1.1,0,2.1,0,3.1-0.2c1-0.2,1.8-0.4,2.3-0.8
		c0.4-0.3,0.8-0.6,1-1c0.2-0.4,0.3-0.8,0.3-1.3c0-0.6-0.2-1.1-0.6-1.5c-0.4-0.4-0.9-0.5-1.5-0.5c-1.2,0-2.2,0.5-3,1.4
		C574.5,352.9,574,354.2,573.7,355.8z"/>
	<path class="st1" d="M593.5,350.2l-0.5,0.9c-0.1,0.1-0.1,0.2-0.2,0.2c-0.1,0-0.1,0.1-0.2,0.1c0,0,0,0,0,0s-0.2-0.1-0.5-0.2
		c-0.3-0.1-0.6-0.2-1-0.3c-0.3-0.1-0.7-0.1-1-0.1c-0.8,0-1.4,0.2-1.8,0.6s-0.6,0.9-0.6,1.5c0,0.4,0.1,0.8,0.3,1.1
		c0.2,0.3,0.8,0.7,1.6,1.3c1.2,0.8,1.9,1.4,2.2,1.9s0.5,1.1,0.5,1.9c0,1.4-0.5,2.5-1.5,3.4c-1,0.9-2.2,1.3-3.7,1.3
		c-0.6,0-1.3-0.1-1.9-0.2c-0.7-0.1-1.2-0.3-1.7-0.6c-0.3-0.1-0.4-0.2-0.5-0.3c-0.1-0.1-0.1-0.2-0.1-0.2c0,0,0-0.1,0-0.1
		c0-0.1,0-0.1,0.1-0.2l0.5-1c0-0.1,0.1-0.2,0.2-0.2s0.1-0.1,0.2-0.1s0.2,0.1,0.5,0.2c0.2,0.1,0.4,0.3,0.7,0.3
		c0.4,0.2,0.8,0.3,1.2,0.4c0.4,0.1,0.9,0.1,1.3,0.1c0.7,0,1.4-0.2,1.9-0.7c0.5-0.4,0.8-1,0.8-1.7c0-0.5-0.1-0.9-0.4-1.3
		c-0.3-0.4-0.8-0.9-1.7-1.5c-1.1-0.7-1.8-1.4-2.1-1.9s-0.4-1.1-0.4-1.7c0-1.2,0.4-2.2,1.3-3.1s2.1-1.3,3.5-1.3
		c0.6,0,1.1,0.1,1.6,0.2c0.5,0.1,1,0.3,1.3,0.5c0.2,0.1,0.3,0.2,0.3,0.4C593.5,349.9,593.5,350,593.5,350.2z"/>
	<path class="st1" d="M604.3,350.2l-0.5,0.9c-0.1,0.1-0.1,0.2-0.2,0.2c-0.1,0-0.1,0.1-0.2,0.1c0,0,0,0,0,0c0,0-0.2-0.1-0.5-0.2
		c-0.3-0.1-0.6-0.2-1-0.3c-0.3-0.1-0.7-0.1-1.1-0.1c-0.8,0-1.4,0.2-1.8,0.6s-0.6,0.9-0.6,1.5c0,0.4,0.1,0.8,0.3,1.1
		c0.2,0.3,0.8,0.7,1.6,1.3c1.2,0.8,1.9,1.4,2.2,1.9c0.3,0.5,0.5,1.1,0.5,1.9c0,1.4-0.5,2.5-1.5,3.4c-1,0.9-2.2,1.3-3.7,1.3
		c-0.6,0-1.3-0.1-1.9-0.2c-0.7-0.1-1.2-0.3-1.7-0.6c-0.3-0.1-0.4-0.2-0.5-0.3c-0.1-0.1-0.1-0.2-0.1-0.2c0,0,0-0.1,0-0.1
		c0-0.1,0.1-0.1,0.1-0.2l0.5-1c0-0.1,0.1-0.2,0.2-0.2s0.1-0.1,0.2-0.1s0.2,0.1,0.5,0.2c0.2,0.1,0.4,0.3,0.7,0.3
		c0.4,0.2,0.8,0.3,1.2,0.4c0.4,0.1,0.8,0.1,1.2,0.1c0.7,0,1.4-0.2,1.9-0.7s0.8-1,0.8-1.7c0-0.5-0.1-0.9-0.4-1.3
		c-0.3-0.4-0.8-0.9-1.7-1.5c-1.1-0.7-1.8-1.4-2.1-1.9s-0.4-1.1-0.4-1.7c0-1.2,0.4-2.2,1.3-3.1s2.1-1.3,3.5-1.3
		c0.6,0,1.1,0.1,1.6,0.2c0.5,0.1,1,0.3,1.3,0.5c0.2,0.1,0.3,0.2,0.3,0.4C604.4,349.9,604.4,350,604.3,350.2z"/>
	<path class="st1" d="M613.5,348.8c1.5,0,2.5,0.5,3.3,1.4c0.7,0.9,1.1,2.1,1.1,3.6c0,1.1-0.2,2.3-0.5,3.5s-0.8,2.2-1.3,3.1
		c-0.7,1.1-1.5,1.9-2.5,2.5c-1,0.6-2.1,0.9-3.3,0.9c-1.4,0-2.5-0.4-3.2-1.2c-0.8-0.8-1.1-2-1.1-3.7c0-1.3,0.2-2.5,0.5-3.7
		s0.8-2.2,1.3-3.1c0.7-1.1,1.5-1.9,2.5-2.4C611.3,349,612.4,348.8,613.5,348.8z M615.7,353.8c0-1.1-0.3-1.9-0.7-2.4
		c-0.5-0.5-1.1-0.8-1.9-0.8c-0.8,0-1.5,0.2-2.1,0.7c-0.6,0.5-1.2,1-1.6,1.8c-0.4,0.7-0.7,1.6-1,2.7c-0.2,1-0.3,2-0.3,3
		c0,1,0.2,1.8,0.6,2.4s1.1,0.8,1.9,0.8c0.7,0,1.3-0.2,2-0.7s1.2-1,1.6-1.8c0.4-0.8,0.7-1.7,1-2.7
		C615.5,355.6,615.7,354.6,615.7,353.8z"/>
	<path class="st1" d="M623.5,356.6l-1.3,6.4c0,0.1-0.1,0.2-0.1,0.2s-0.1,0.1-0.2,0.1h-1.5c-0.1,0-0.2,0-0.2-0.1c0,0,0-0.1,0-0.3
		l2-9.2c0.1-0.4,0.1-0.7,0.2-1c0-0.3,0.1-0.6,0.1-0.9c0-0.3,0-0.5-0.1-0.7c0-0.2,0-0.5-0.1-0.6c-0.1-0.4-0.2-0.6-0.2-0.6
		c0,0,0,0,0-0.1c0-0.1,0-0.1,0-0.2c0,0,0.1-0.1,0.3-0.2l1.2-0.5c0.2-0.1,0.4-0.1,0.5,0c0.1,0.1,0.2,0.3,0.3,0.5
		c0,0.2,0.1,0.5,0.1,0.8s0,0.5,0,0.8c0,0.1,0,0.2,0,0.3s0,0.2,0,0.4l0,0.2h0.1c0.5-0.9,1-1.6,1.8-2.1c0.8-0.5,1.5-0.8,2.3-0.8
		c0.3,0,0.5,0,0.7,0.1c0.2,0.1,0.3,0.2,0.3,0.3c0,0,0,0.1,0,0.1s0,0.1-0.1,0.1l-0.6,1.3c0,0.1-0.1,0.2-0.1,0.2c0,0-0.1,0-0.1,0
		c0,0-0.1,0-0.1,0c-0.1,0-0.1,0-0.2-0.1c-0.1,0-0.2,0-0.3-0.1s-0.2,0-0.3,0c-0.5,0-1,0.2-1.5,0.5s-1,0.9-1.5,1.6
		c-0.3,0.5-0.6,1-0.8,1.5C623.8,354.9,623.6,355.7,623.5,356.6z"/>
	<path class="st1" d="M635.8,349.7L633,363c0,0.1-0.1,0.2-0.1,0.2s-0.1,0.1-0.2,0.1h-1.5c-0.1,0-0.2,0-0.2-0.1c0,0,0-0.1,0-0.3
		l2.5-12h-2.3c-0.1,0-0.2,0-0.2-0.1s0-0.2,0-0.3l0.2-1c0-0.1,0.1-0.2,0.1-0.2c0.1,0,0.2-0.1,0.3-0.1h3.9c0.2,0,0.3,0,0.3,0.1
		C635.9,349.4,635.9,349.5,635.8,349.7z M637.6,343.9c0,0.5-0.2,0.9-0.5,1.2c-0.3,0.3-0.7,0.5-1.1,0.5c-0.5,0-0.9-0.2-1.2-0.5
		c-0.3-0.3-0.5-0.7-0.5-1.2c0-0.4,0.2-0.8,0.5-1.1c0.3-0.3,0.7-0.5,1.2-0.5c0.5,0,0.8,0.2,1.2,0.5
		C637.4,343,637.6,343.4,637.6,343.9z"/>
	<path class="st1" d="M647.4,360.4l0.7,1c0,0.1,0,0.1,0,0.1s0,0,0,0c0,0.1-0.1,0.2-0.2,0.3s-0.3,0.3-0.7,0.5c-0.6,0.4-1.3,0.7-2.1,1
		s-1.6,0.4-2.4,0.4c-0.8,0-1.5-0.1-2-0.3c-0.6-0.2-1.1-0.6-1.5-1.1c-0.5-0.5-0.8-1.1-1-1.7c-0.2-0.6-0.3-1.4-0.3-2.3
		c0-2.8,0.7-5,2.2-6.8c1.5-1.8,3.2-2.7,5.3-2.7c1.2,0,2.1,0.4,2.8,1s1,1.6,1.1,2.8c0,1.6-0.7,2.9-2.1,3.8c-1.4,0.9-3.7,1.4-6.8,1.4
		h-0.1c0,0.1,0,0.3,0,0.4c0,0.1,0,0.3,0,0.4c0,0.4,0,0.8,0.1,1.1s0.2,0.6,0.3,0.8c0.2,0.5,0.5,0.8,0.9,1.1c0.4,0.2,0.9,0.3,1.5,0.3
		c0.5,0,1.2-0.1,1.8-0.3s1.3-0.5,1.9-0.9c0.1-0.1,0.2-0.1,0.3-0.2c0.1,0,0.1-0.1,0.2-0.1c0,0,0.1,0,0.1,0.1
		C647.3,360.3,647.3,360.3,647.4,360.4z M640.5,355.8c1.1,0,2.1,0,3.1-0.2c1-0.2,1.8-0.4,2.3-0.8c0.4-0.3,0.8-0.6,1-1
		c0.2-0.4,0.3-0.8,0.3-1.3c0-0.6-0.2-1.1-0.6-1.5c-0.4-0.4-0.9-0.5-1.5-0.5c-1.2,0-2.2,0.5-3,1.4
		C641.3,352.9,640.8,354.2,640.5,355.8z"/>
	<path class="st1" d="M660.3,350.2l-0.5,0.9c-0.1,0.1-0.1,0.2-0.2,0.2c-0.1,0-0.1,0.1-0.2,0.1c0,0,0,0,0,0c0,0-0.2-0.1-0.5-0.2
		c-0.3-0.1-0.6-0.2-1-0.3c-0.3-0.1-0.7-0.1-1.1-0.1c-0.8,0-1.4,0.2-1.8,0.6s-0.6,0.9-0.6,1.5c0,0.4,0.1,0.8,0.3,1.1
		c0.2,0.3,0.8,0.7,1.6,1.3c1.2,0.8,1.9,1.4,2.2,1.9c0.3,0.5,0.5,1.1,0.5,1.9c0,1.4-0.5,2.5-1.5,3.4c-1,0.9-2.2,1.3-3.7,1.3
		c-0.6,0-1.3-0.1-1.9-0.2c-0.7-0.1-1.2-0.3-1.7-0.6c-0.3-0.1-0.4-0.2-0.5-0.3c-0.1-0.1-0.1-0.2-0.1-0.2c0,0,0-0.1,0-0.1
		c0-0.1,0.1-0.1,0.1-0.2l0.5-1c0-0.1,0.1-0.2,0.2-0.2s0.1-0.1,0.2-0.1c0.1,0,0.2,0.1,0.5,0.2c0.2,0.1,0.4,0.3,0.7,0.3
		c0.4,0.2,0.8,0.3,1.2,0.4c0.4,0.1,0.9,0.1,1.3,0.1c0.7,0,1.4-0.2,1.9-0.7s0.8-1,0.8-1.7c0-0.5-0.1-0.9-0.4-1.3
		c-0.3-0.4-0.8-0.9-1.7-1.5c-1.1-0.7-1.8-1.4-2.1-1.9c-0.3-0.5-0.4-1.1-0.4-1.7c0-1.2,0.4-2.2,1.3-3.1s2.1-1.3,3.5-1.3
		c0.6,0,1.1,0.1,1.6,0.2c0.5,0.1,1,0.3,1.3,0.5c0.2,0.1,0.3,0.2,0.3,0.4C660.4,349.9,660.3,350,660.3,350.2z"/>
	<path class="st1" d="M669.2,354.7h6.1c0.1,0,0.2,0,0.2,0.1c0,0.1,0,0.2,0,0.4l-0.3,1.4c0,0.1-0.1,0.2-0.2,0.3s-0.2,0.1-0.3,0.1h-6
		c-0.1,0-0.2,0-0.3-0.1c0,0,0-0.2,0-0.5l0.3-1.3c0-0.1,0.1-0.2,0.1-0.3C669,354.8,669.1,354.7,669.2,354.7z"/>
	<g>
		<path class="st1" d="M394.4,361l0.2,1.3c0,0.1,0,0.2-0.1,0.3c-0.1,0.1-0.2,0.2-0.4,0.3c-0.4,0.2-0.9,0.4-1.6,0.5
			c-0.7,0.1-1.3,0.2-1.8,0.2c-0.9,0-1.6-0.3-2.1-0.7c-0.5-0.5-0.7-1.2-0.7-2.1c0-0.2,0-0.5,0-0.7s0.1-0.6,0.2-1.1l1.7-8.1h-2.1
			c-0.1,0-0.1,0-0.2,0s-0.1-0.1-0.1-0.1c0,0,0-0.1,0-0.1c0-0.1,0-0.1,0.1-0.2l0.2-0.8c0-0.1,0.1-0.2,0.1-0.3s0.1-0.1,0.3-0.1h2.1
			l0.9-4c0-0.1,0-0.2,0.1-0.2c0,0,0.1-0.1,0.2-0.1l1.5-0.4c0.1,0,0.2,0,0.3,0s0.1,0.2,0,0.5l-0.9,4.3h4c0.1,0,0.1,0,0.2,0.1
			c0,0,0.1,0.1,0.1,0.1c0,0,0,0,0,0.1c0,0,0,0.1-0.1,0.2l-0.5,1c-0.1,0.1-0.1,0.2-0.2,0.2s-0.1,0-0.2,0h-3.6l-1.7,8
			c-0.1,0.2-0.1,0.5-0.1,0.8s0,0.5,0,0.7c0,0.5,0.1,0.8,0.3,1c0.2,0.2,0.5,0.3,0.9,0.3c0.4,0,0.8,0,1.1-0.1s0.7-0.3,1.1-0.4
			c0.3-0.1,0.5-0.2,0.5-0.2c0,0,0.1,0,0.1,0s0.1,0,0.1,0.1C394.3,360.9,394.4,361,394.4,361z"/>
		<path class="st1" d="M404.4,348.8c1.5,0,2.5,0.5,3.3,1.4c0.7,0.9,1.1,2.1,1.1,3.6c0,1.1-0.2,2.3-0.5,3.4c-0.3,1.2-0.8,2.2-1.3,3.1
			c-0.7,1.1-1.5,1.9-2.5,2.5c-1,0.6-2.1,0.9-3.3,0.9c-1.4,0-2.5-0.4-3.2-1.2c-0.8-0.8-1.1-2-1.1-3.7c0-1.3,0.2-2.5,0.5-3.7
			s0.8-2.2,1.4-3.1c0.7-1.1,1.6-1.9,2.5-2.4C402.2,349,403.3,348.8,404.4,348.8z M406.6,353.8c0-1.1-0.3-1.9-0.7-2.4
			s-1.1-0.8-1.9-0.8c-0.8,0-1.5,0.2-2.1,0.7s-1.2,1.1-1.6,1.8c-0.4,0.7-0.7,1.6-1,2.7c-0.2,1-0.3,2-0.3,3c0,1,0.2,1.8,0.6,2.4
			s1.1,0.8,1.9,0.8c0.7,0,1.4-0.2,2-0.7c0.6-0.4,1.2-1,1.6-1.8c0.4-0.8,0.7-1.7,1-2.7C406.5,355.6,406.6,354.6,406.6,353.8z"/>
		<path class="st1" d="M411.1,361.5l4-18.6c0-0.2,0.1-0.3,0.1-0.4s0.1-0.1,0.2-0.1l1.5-0.4c0.1,0,0.2,0,0.3,0c0.1,0,0.1,0.1,0.1,0.2
			l-1.5,7c-0.1,0.2-0.1,0.5-0.2,0.8c-0.1,0.3-0.2,0.6-0.3,0.9h0.1c0.5-0.7,1.1-1.3,1.8-1.7s1.5-0.6,2.3-0.6c1.1,0,1.9,0.3,2.5,1
			c0.6,0.6,0.9,1.6,0.9,3c0,2.7-0.7,5.1-2,7.5c-1.3,2.3-3,3.5-5,3.5c-0.9,0-2-0.3-3.1-0.7c-1.2-0.5-1.7-0.8-1.7-1.2
			C411,361.8,411.1,361.7,411.1,361.5z M414.6,355l-1.3,5.9l0.3,0.1c0.5,0.3,1,0.5,1.4,0.6c0.4,0.1,0.7,0.2,1,0.2
			c1.2,0,2.3-0.9,3.3-2.7s1.5-3.9,1.5-6.2c0-0.7-0.2-1.3-0.5-1.7c-0.3-0.4-0.8-0.6-1.4-0.6c-0.9,0-1.8,0.4-2.6,1.2
			C415.4,352.8,414.9,353.8,414.6,355z"/>
		<path class="st1" d="M435.2,350.3l0.4-0.9c0-0.1,0.1-0.2,0.1-0.2s0.1,0,0.1,0h1.3c0.1,0,0.1,0,0.2,0.1c0,0,0,0.1,0,0.3l-2,9.2
			c-0.1,0.5-0.2,0.9-0.2,1.2c0,0.3-0.1,0.7-0.1,1.1c0,0.5,0,0.9,0.1,1.1c0.1,0.2,0.1,0.4,0.1,0.6c0,0,0,0.1,0,0.1
			c0,0.1,0,0.1-0.1,0.1s-0.1,0.1-0.2,0.1l-1.3,0.5c-0.1,0-0.2,0-0.3,0s-0.1-0.1-0.2-0.2c-0.1-0.2-0.2-0.4-0.3-0.8s-0.1-0.7-0.1-1.1
			c0-0.3,0-0.5,0-0.6c0-0.1,0.1-0.3,0.1-0.5h-0.1c-0.6,1.1-1.4,1.9-2.1,2.4s-1.6,0.8-2.4,0.8c-1.1,0-1.9-0.4-2.5-1.1
			c-0.6-0.8-0.9-1.8-0.9-3.2c0-1.1,0.1-2.2,0.4-3.4c0.3-1.2,0.7-2.2,1.1-3.1c0.7-1.4,1.5-2.4,2.5-3.1c1-0.6,1.9-1,3-1
			c0.5,0,1,0.1,1.5,0.3s0.9,0.6,1.4,1.1L435.2,350.3z M433.8,356l0.9-4l0,0c-0.4-0.4-0.8-0.7-1.3-0.9s-0.9-0.3-1.3-0.3
			c-0.7,0-1.4,0.3-2,0.8s-1.1,1.4-1.6,2.5c-0.3,0.8-0.6,1.6-0.8,2.6c-0.2,1-0.3,1.8-0.3,2.6c0,0.9,0.1,1.5,0.4,1.9
			c0.3,0.4,0.8,0.6,1.4,0.6c1,0,2-0.6,2.8-1.7C432.9,358.9,433.5,357.6,433.8,356z"/>
		<path class="st1" d="M450.1,350.3l-0.6,1c-0.1,0.1-0.1,0.2-0.1,0.2s-0.1,0-0.1,0c-0.1,0-0.2,0-0.3,0c-0.1,0-0.2-0.1-0.4-0.2
			c-0.3-0.2-0.6-0.3-1-0.4c-0.3-0.1-0.7-0.1-1-0.1c-0.8,0-1.6,0.2-2.3,0.6c-0.7,0.4-1.2,1-1.6,1.8c-0.5,0.8-0.8,1.7-1,2.7
			c-0.3,1-0.4,2-0.4,2.9c0,1,0.2,1.7,0.6,2.2c0.4,0.5,1.1,0.8,2,0.8c0.4,0,0.8,0,1.1-0.1c0.4-0.1,0.9-0.4,1.7-0.9
			c0.2-0.1,0.4-0.2,0.4-0.2c0,0,0.1,0,0.1,0c0,0,0.1,0,0.1,0s0.1,0,0.1,0.1l0.4,1c0,0,0,0.1,0,0.1s0,0.1,0,0.1
			c0,0.1-0.1,0.2-0.1,0.2c-0.1,0.1-0.3,0.2-0.5,0.4c-0.6,0.4-1.3,0.7-2,0.9c-0.6,0.2-1.4,0.3-2.1,0.3c-1.5,0-2.5-0.5-3.2-1.3
			s-1-2-1-3.6c0-2.9,0.7-5.3,2.2-7.2s3.3-2.9,5.5-2.9c0.4,0,0.8,0,1.1,0.1s0.8,0.2,1.1,0.3c0.4,0.2,0.7,0.3,0.9,0.4
			c0.2,0.1,0.3,0.3,0.3,0.4c0,0.1,0,0.1,0,0.2C450.2,350.2,450.2,350.3,450.1,350.3z"/>
		<path class="st1" d="M461.7,350.3l-0.6,1c-0.1,0.1-0.1,0.2-0.1,0.2s-0.1,0-0.1,0c-0.1,0-0.2,0-0.3,0c-0.1,0-0.2-0.1-0.4-0.2
			c-0.3-0.2-0.6-0.3-1-0.4s-0.7-0.1-1-0.1c-0.8,0-1.6,0.2-2.3,0.6c-0.7,0.4-1.2,1-1.6,1.8c-0.5,0.8-0.8,1.7-1.1,2.7
			c-0.3,1-0.4,2-0.4,2.9c0,1,0.2,1.7,0.6,2.2c0.4,0.5,1.1,0.8,2,0.8c0.4,0,0.8,0,1.1-0.1c0.4-0.1,0.9-0.4,1.7-0.9
			c0.2-0.1,0.4-0.2,0.4-0.2c0,0,0.1,0,0.1,0c0,0,0.1,0,0.1,0s0.1,0,0.1,0.1l0.4,1c0,0,0,0.1,0,0.1s0,0.1,0,0.1
			c0,0.1-0.1,0.2-0.1,0.2c-0.1,0.1-0.3,0.2-0.5,0.4c-0.6,0.4-1.3,0.7-2,0.9c-0.7,0.2-1.4,0.3-2.1,0.3c-1.5,0-2.5-0.5-3.2-1.3
			c-0.7-0.9-1-2-1-3.6c0-2.9,0.7-5.3,2.2-7.2s3.3-2.9,5.5-2.9c0.4,0,0.8,0,1.1,0.1c0.4,0.1,0.8,0.2,1.1,0.3c0.4,0.2,0.7,0.3,0.9,0.4
			c0.2,0.1,0.3,0.3,0.3,0.4c0,0.1,0,0.1,0,0.2C461.8,350.2,461.7,350.3,461.7,350.3z"/>
		<path class="st1" d="M469.8,348.8c1.5,0,2.5,0.5,3.3,1.4c0.7,0.9,1.1,2.1,1.1,3.6c0,1.1-0.2,2.3-0.5,3.4c-0.3,1.2-0.8,2.2-1.3,3.1
			c-0.7,1.1-1.5,1.9-2.5,2.5c-1,0.6-2.1,0.9-3.4,0.9c-1.4,0-2.5-0.4-3.2-1.2c-0.8-0.8-1.1-2-1.1-3.7c0-1.3,0.2-2.5,0.5-3.7
			c0.3-1.2,0.8-2.2,1.4-3.1c0.7-1.1,1.6-1.9,2.5-2.4C467.6,349,468.7,348.8,469.8,348.8z M472,353.8c0-1.1-0.3-1.9-0.7-2.4
			s-1.1-0.8-1.9-0.8c-0.8,0-1.5,0.2-2.1,0.7c-0.6,0.5-1.2,1.1-1.6,1.8c-0.4,0.7-0.7,1.6-1,2.7c-0.2,1-0.3,2-0.3,3
			c0,1,0.2,1.8,0.6,2.4s1.1,0.8,1.9,0.8c0.7,0,1.4-0.2,2-0.7s1.2-1,1.6-1.8c0.4-0.8,0.7-1.7,1-2.7C471.9,355.6,472,354.6,472,353.8z
			"/>
	</g>
	<g>
		<g>
			<path class="st1" d="M194.3,243l-0.8,1.5c-1.1,2.4-0.9,6.3,0.6,8.5c0.6,0.9,1.9,2.2,2.8,2.8c0.9,0.6,1.8,0.9,1.9,0.8
				c0.1-0.1-0.1-0.4-0.5-0.6c-1.6-0.9-3.3-2.7-3.9-4.3c-0.7-1.8-0.9-4.9-0.5-7.3L194.3,243z"/>
			<path class="st1" d="M196.6,287.8c0.5-0.6,0.5-0.6-0.1-0.1c-0.4,0.3-0.7,0.6-0.7,0.6C195.8,288.6,196.1,288.4,196.6,287.8z"/>
			<path class="st1" d="M198.1,283.9c-1.6,1.1-3.4,3-4.4,4.9c-0.4,0.7-1,1.8-1.4,2.2c-0.4,0.5-0.7,1.1-0.7,1.2c0,0.4,0.4,0.4,0.9,0
				c0.2-0.1,0.8-1.2,1.4-2.4c0.6-1.1,2.1-3.2,3.3-4.5C199.1,283.3,199.3,283.1,198.1,283.9z"/>
			<path class="st1" d="M196,242.6c0.1-0.4,0-0.3-0.3,0.3c-2.1,3.5,0,10.7,3.4,12.1c1.5,0.6,2.5,0.5,2.5-0.4c0-0.4-0.1-0.6-0.4-0.5
				c-0.2,0.1-0.6,0-0.8-0.1c-3.8-3-5-5.3-4.8-8.6C195.6,244.3,195.8,243.1,196,242.6z"/>
			<path class="st1" d="M150.7,276.7c-1.6,1.1-1.7,1.1-3.9,0.8c-3.1-0.5-4.8-1.4-6.2-3.3c-2.9-3.9-1.5-9.9,3.1-13
				c0.9-0.6,2.1-1.2,2.6-1.4c0.6-0.1,1-0.4,1-0.6c0-1.2-4.5,1.1-6.4,3.3c-3.7,4.2-4.1,8.9-0.9,12.3c1.6,1.8,3.5,2.7,6.3,3.1
				c2.1,0.3,2.1,0.3-0.6,0.2c-1.5,0-2.8,0-2.8,0c0,0,0.6,0.3,1.3,0.5c2.8,0.8,5.5,0.2,7.9-1.7C154,275.2,153,275.1,150.7,276.7z"/>
			<path class="st1" d="M196.8,297.2c0.4,0.2,1,0.3,1.3,0.3c0.3,0,0.3-0.1-0.2-0.3c-0.4-0.2-1-0.3-1.3-0.3
				C196.3,296.9,196.3,297,196.8,297.2z"/>
			<path class="st1" d="M145.6,279.5c-0.8-0.2-0.9-0.1-0.9,1.1c0,0.7,0.1,1.4,0.3,1.6c0.2,0.1,0.5,0.1,0.8,0
				c0.3-0.1,0.8-0.2,1.1-0.2c0.4,0,0.5-0.2,0.3-0.8C146.8,280.1,146.6,279.9,145.6,279.5z"/>
			<path class="st1" d="M200.3,291.8c2.8-4.6,7.6-7.5,12.3-7.6c2.9,0,1.4-0.6-1.7-0.6c-2.9,0-4.9,0.8-7.5,3.3
				c-1.7,1.6-4.9,5.7-4.9,6.4C198.5,293.9,199.4,293.2,200.3,291.8z"/>
			<path class="st1" d="M201.5,268.5c-0.8-1.7-0.9-4.8-0.3-6.5c0.3-0.7,0.3-1.5,0.1-2c-0.4-0.9-0.4-0.9-1.1,0.5
				c-0.4,0.8-0.8,1.4-1,1.4c-0.2,0-0.3-0.6-0.2-1.4c0.1-1.3,0-1.5-0.8-1.6c-0.7-0.1-0.9,0.1-1.3,1c-0.2,0.6-0.6,1.2-0.8,1.2
				c-0.4,0-0.3-1.1,0.2-2.3c0.1-0.4-0.2-0.8-1-1.3l-1.2-0.8L193,258c-0.8,1-0.9,1.4-0.6,1.6c0.4,0.2,0.4,0.4,0,0.6
				c-0.8,0.5-0.9,4.5-0.3,7.5c0.8,3.6,2.1,6.3,4.2,8.2c1.9,1.8,2.2,1.8,4.4,0.9l1.6-0.7l-0.9-0.4c-1.6-0.8-4.3-3.5-5.1-5.2
				c-0.8-1.7-1.1-4.9-0.5-5.3c0.2-0.1,0.5,0.9,0.8,2.2c0.6,3.2,2,5.1,5,6.6c1.3,0.7,2.9,1.3,3.4,1.3l1,0l-1.1-0.6
				c-3.2-1.6-5.9-5.7-5.9-8.7v-1.5l0.6,2c0.3,1.1,0.8,2.5,1.1,3c1.2,2.3,4.7,4.6,6.8,4.6c0.7,0,0.5-0.2-0.7-0.7
				C204.5,272.3,202.3,270.3,201.5,268.5z M193.9,261.1c-0.5-0.3-0.5-0.4,0.1-0.4c0.3,0,0.6,0.2,0.6,0.4
				C194.7,261.5,194.6,261.5,193.9,261.1z"/>
			<path class="st1" d="M194.9,295.6c2.6,0.4,4.7,1.3,6.8,2.7c1.9,1.3,4.3,3.7,4.6,4.6c0.1,0.3,0.5,0.6,0.7,0.6c1.3,0,0.9-1-1.2-3.1
				c-3-3-6.6-4.8-10.3-5C193.1,295.3,193.1,295.4,194.9,295.6z"/>
			<path class="st1" d="M163.7,315.5c0.4-0.2,1.1-0.4,1.5-0.4c1.9,0,5.8-7.8,5.8-11.6c0-2.3-1.2-5.8-2.6-8c-3.3-4.8-10.2-8-15.4-7.1
				c-4.2,0.7-5.8,1.9-2.7,1.9c1.6,0,4.2,1.1,5,2c0.6,0.8,0.5,0.8-1.5-0.1c-3.4-1.5-10.6-0.5-11.9,1.6c-0.6,1,0.2,1.7,1.3,1.1
				c2.8-1.4,8.4-1.1,12.2,0.6c2.8,1.3,6.4,5,7.9,7.9c1,2,1.1,2.7,1.1,5.7c0,2.4-0.2,3.9-0.7,5.1C163,315.8,163,315.9,163.7,315.5z
				 M165.8,307.9c0-1.5,0.1-2.7,0.3-2.7c0.4,0,1.1,1.9,1.1,2.8c0,0.5-0.3,1.3-0.7,1.8C165.8,310.6,165.8,310.6,165.8,307.9z
				 M162,297.5c-0.5-0.8-1.7-2-2.6-2.7c-2-1.4-1.6-1.8,0.6-0.6c1.5,0.8,3.3,2.7,4.2,4.5c0.3,0.5,0.4,1.3,0.3,1.7
				C164.3,301.3,164.6,301.5,162,297.5z"/>
			<path class="st1" d="M206.9,271.7c0.6,0,0.9-0.8,0.4-1.3c-0.5-0.5-1.4,0.2-1,0.8C206.4,271.5,206.7,271.7,206.9,271.7z"/>
			<path class="st1" d="M153.9,278.3c0,0.2,0.1,0.3,0.2,0.2s0.1-0.5,0-0.8c-0.3-0.6-1.3-0.8-1.3-0.2c0,0.2,0.3,0.4,0.6,0.4
				C153.6,277.8,153.9,278,153.9,278.3z"/>
			<path class="st1" d="M163.6,246.2c3,0,6.7,1.3,8.9,2.9c2.2,1.6,2.6,1.7,1.4,0.1c-2.4-3.2-6.4-4.4-11.2-3.4
				C161.4,246.1,161.4,246.2,163.6,246.2z"/>
			<path class="st1" d="M175.7,250.1c0.5,0,0.4-0.2-0.5-1c-0.8-0.7-0.8-0.7-0.3,0.1C175.2,249.7,175.5,250.1,175.7,250.1z"/>
			<path class="st1" d="M166.2,244.5c-0.5-0.1-1.3-0.1-1.7,0c-0.5,0.1-0.1,0.1,0.8,0.1C166.3,244.6,166.6,244.6,166.2,244.5z"/>
			<path class="st1" d="M168.7,276.7c1.3,4,2.7,5.9,5.5,7.2c1.3,0.6,3.2,1.6,4.1,2.1s2,0.9,2.4,0.8c0.9-0.1,0.4-0.6-0.6-0.6
				c-0.6,0-0.7-0.1-0.3-0.3c0.4-0.2,0-0.6-1.3-1.4c-1-0.6-2.3-1.4-2.8-1.9c-3.7-3.3-5.9-10.5-5-16.3c1.1-7.4,7.1-13.7,16.8-17.7
				c0.9-0.4,0.9-0.4-0.3-0.4c-5.1-0.1-13,4.3-15.9,8.8C167.7,262.3,166.8,270.4,168.7,276.7z"/>
			<path class="st1" d="M163.4,247.2c2.8,0.2,5.8,1.3,8,2.8c1.1,0.8,2.3,1.4,2.4,1.5c0.9,0.1-1.6-1.9-3.7-3
				c-2.1-1.1-2.8-1.3-5.4-1.3C163,247.1,162.4,247.2,163.4,247.2z"/>
			<path class="st1" d="M186.4,297.3c-0.2,0.3,0,0.3,0.5,0.1c1.8-0.7,4.7-1.1,6.8-0.9c1.4,0.1,2.1,0.1,1.6-0.1
				C193.4,295.6,187.1,296.2,186.4,297.3z"/>
			<path class="st1" d="M151.5,280.4c0.3-0.4,0.2-0.6-0.5-1c-1.1-0.6-1.5-0.3-0.9,0.7C150.5,281,150.9,281,151.5,280.4z"/>
			<path class="st1" d="M190.7,240.9c0.1,0,0.2-0.3,0.2-0.6s-0.2-0.6-0.4-0.6c-0.2,0-0.3,0.3-0.1,0.6
				C190.5,240.7,190.6,240.9,190.7,240.9z"/>
			<path class="st1" d="M152.9,279.3c0.4-0.4-0.4-1.1-1.2-1.1c-0.7,0-0.6,0.4,0.2,1C152.3,279.5,152.6,279.5,152.9,279.3z"/>
			<path class="st1" d="M146.3,263.7c1-0.4,1.5-1.5,0.7-2c-0.4-0.3-3.6,2-4.5,3.2c-2,2.5-2.6,5.7-1.4,7.9c0.8,1.5,2.6,3.1,3.9,3.5
				c2.1,0.6,4.2,0.3,6.1-1l0.9-0.6l-1.3-1.7c-1.4-1.8-2.8-5-3.1-7.4c-0.2-1.5-0.3-1.5-1.3-1c-1.3,0.7-3.4,3-3.7,4.2
				c-0.5,2,1.1,4.2,2.4,3.4c1-0.6,1-1.3,0.2-1.6c-1.1-0.3-0.9-1.4,0.2-1.6c1.1-0.1,2.1,0.9,2.1,2c0,1.3-1.6,2.8-3,2.8
				c-2.5,0-4-3.7-2.6-6.4C142.5,266.2,144.9,264.2,146.3,263.7z"/>
			<path class="st1" d="M141.3,259.5c-2.1,1.8-4.1,4.7-4.4,6.4l-0.2,1.1l0.4-1.2c1.1-3.1,5.5-7.3,8.6-8.2c1.6-0.4,2.4-1.2,1.9-1.7
				C147.3,255.5,143.2,257.8,141.3,259.5z"/>
			<path class="st1" d="M143.7,279.3c-0.6,0-0.8,1.9-0.3,2.4c0.6,0.6,0.9,0.2,0.9-1.1C144.3,279.8,144.1,279.3,143.7,279.3z"/>
			<path class="st1" d="M189.1,242.9c0.3,0.4,0.7,0.5,1.1,0.1c0.1-0.1,0.8-0.3,1.4-0.3c1.8,0,1.9-1,0.1-1
				C190.3,241.7,188.8,242.3,189.1,242.9z"/>
			<path class="st1" d="M179.1,242c-0.8-0.5-0.4,0.1,1.3,1.9c1.4,1.4,2.6,2.6,2.7,2.5C183.5,246.1,180.4,242.8,179.1,242z"/>
			<path class="st1" d="M149.4,281.4c0.5-0.2,0.5-0.4,0.1-1.1c-0.5-1-0.9-1.1-1.8-0.6c-0.4,0.3-0.4,0.5-0.1,1.1
				C148.2,281.6,148.5,281.8,149.4,281.4z"/>
			<path class="st1" d="M183,243.6c-0.1,0,0.2,0.6,0.7,1.3c0.6,0.9,1,1.2,1.6,1.1c0.7-0.1,0.7-0.2-0.2-0.5c-0.5-0.1-0.8-0.3-0.6-0.3
				C184.8,245.1,183.4,243.6,183,243.6z"/>
			<path class="st1" d="M187.9,252.3c-2.6-0.7-10,4.4-11.9,8.2c-0.9,1.7-1.6,1.9-1,0.2c0.6-1.6,5.6-6.6,8.6-8.5
				c2.9-1.9,3.1-2.5,0.1-0.9c-5.8,3.2-9.1,6.4-10.8,10.6c-0.8,1.8-0.9,2.8-0.9,6.6c0,3.8,0.1,5,0.9,7.1c0.5,1.4,1.2,2.7,1.5,3
				c0.6,0.4,0.6,0.4,0.2-0.1c-0.5-0.6-1.3-2.7-1.1-2.7c0,0,0.6,0.8,1.3,1.7c0.7,1,1.3,1.7,1.3,1.7c0,0-0.2-1.3-0.6-2.7
				c-1.1-4.1-0.8-8.9,0.7-12.2c0.6-1.3,1.4-2.7,1.7-3c0.3-0.3,1-1.2,1.6-1.9c1.4-1.8,6.8-5.4,9.7-6.4c1.7-0.6,2.3-1,2.1-1.4
				c-0.1-0.3-0.5-0.5-0.8-0.3c-0.3,0.1-1,0.2-1.5,0.2c-0.6,0-0.9,0.1-0.7,0.5C188.6,252.3,188.4,252.4,187.9,252.3z"/>
			<path class="st1" d="M174.8,310.5c-0.2,0.3-0.4,0.7-0.4,0.9c0,0.5,0.8,0.3,1-0.3C175.8,310.2,175.3,309.8,174.8,310.5z"/>
			<path class="st1" d="M171.3,316.8c0.3-0.2-0.7-1.3-1.2-1.3c-0.2,0-0.1,0.3,0.3,0.8C170.8,316.6,171.2,316.9,171.3,316.8z"/>
			<path class="st1" d="M172.2,316c0.2-0.1,0.1-0.5-0.2-0.8c-0.7-0.7-1.3-0.3-0.6,0.5C171.7,316,172.1,316.1,172.2,316z"/>
			<path class="st1" d="M169.9,316.9c0.3,0.5,0.6,0.8,0.7,0.6c0.1-0.1-0.1-0.5-0.5-0.8C169.4,316.1,169.4,316.1,169.9,316.9z"/>
			<path class="st1" d="M174.7,318.2c2.6-3.2,4.8-7.6,5.9-12c1.1-4.5,0.9-10.3-0.4-13.7c-1.5-4-5.6-7.3-9.5-8.1
				c-1.3-0.2-1.3-0.2,0.6,0.8c2.3,1.2,3.5,2.3,4.2,3.7c0.9,1.8,0.6,1.9-0.7,0.3c-1.5-2-1.8-2.1-3-1.1l-0.9,0.7l1.5,1.6
				c2.1,2.2,3,3.8,4,6.8c0.7,2.1,0.8,3,0.6,6.4c-0.1,2.2,0,3.8,0.1,3.7c0.7-0.4,1.7-5.1,1.6-8c0-1.9,0.1-2.7,0.3-2.1
				c0.5,1.8,0.3,6-0.4,8.9c-1,3.9-2.7,7.6-5.2,11.1c-1.1,1.6-1.9,3-1.8,3.2C172.1,321.1,172.6,320.7,174.7,318.2z M177.4,294.1
				c-0.1,0.5-0.2,0.5-0.6-0.2c-0.3-0.5-0.4-1.2-0.4-1.5c0.1-0.5,0.2-0.5,0.6,0.2C177.4,293.1,177.5,293.7,177.4,294.1z"/>
			<path class="st1" d="M172,314.3c0.1,0.2,0.5,0.4,0.8,0.4c0.3,0,0.5-0.1,0.5-0.4c0-0.2-0.3-0.4-0.8-0.4
				C172.1,313.9,171.9,314.1,172,314.3z"/>
			<path class="st1" d="M168,279.6c-1-2.3-1.1-2.4-1.9-1.8c-0.4,0.3-0.3,0.8,0.7,2.5c0.7,1.2,1.5,2.1,1.8,2.1c0.3,0,0.5-0.1,0.4-0.3
				C169,281.9,168.5,280.8,168,279.6z"/>
			<path class="st1" d="M176.1,309.3c0.6-0.2,0.9-1.1,0.4-1.1c-0.2,0-0.5,0.3-0.6,0.6C175.7,309.2,175.8,309.4,176.1,309.3z"/>
			<path class="st1" d="M189,255.1c1-0.6,1.3-1.5,0.3-1.3c-1.6,0.4-5.6,2.7-7.6,4.5c-5.4,4.9-7.2,11.9-4.9,18.9c0.5,1.5,1,2.9,1,2.9
				s0.1,0.1,0.2,0c0.1-0.1,0-1-0.2-2c-1-4.1,0.5-10.9,3.4-15.1C182.7,260.9,187.6,255.9,189,255.1z"/>
			<path class="st1" d="M174.2,313.2c0.5-0.5,0-0.9-0.8-0.6c-0.6,0.2-0.6,0.3-0.1,0.6C173.6,313.4,174,313.4,174.2,313.2z"/>
			<path class="st1" d="M179.9,268.8c0.5,0.3,0.8,0,1.2-1.1c0.2-0.7,0.1-0.9-0.5-0.9C179.8,266.8,179.2,268.3,179.9,268.8z"/>
			<path class="st1" d="M169.6,287.8c0.3,0.1,0.5,0.2,0.6,0.2c0.4,0.1,1.9-1.3,1.8-1.5c-0.3-0.6-1.5-0.4-2.2,0.4
				C169.2,287.5,169.2,287.7,169.6,287.8z"/>
			<path class="st1" d="M181.7,265.9c0-0.9-0.7-1.1-1.1-0.2c-0.3,0.6-0.3,0.8,0.4,0.8C181.4,266.4,181.7,266.2,181.7,265.9z"/>
			<path class="st1" d="M186.3,288.3c1,0.7,1.9,1.3,2,1.3c0.1,0,0.3-0.4,0.5-0.9c0.1-0.7-0.2-1.3-2-3.2c-3.9-4-6.1-9.1-6.1-13.9
				c0-1.9-0.1-2.2-0.8-2.2c-1.7,0-1.6,7.2,0.3,11.1C181.5,283.5,184,286.6,186.3,288.3z"/>
			<path class="st1" d="M185.3,300.3c-0.3-1.6-0.7-0.5-0.8,2.4c-0.2,5.7-3.1,11.9-7.8,16.7c-1.4,1.4-2.6,2.7-2.6,2.7
				c0,0.3,0.9,0,2.1-0.8c0.8-0.5,1.6-1,1.9-1c0.9,0,4-4,5.5-7C185.7,309.3,186.3,304.9,185.3,300.3z"/>
			<path class="st1" d="M183.7,261.7c-0.3-0.3-1.3,0.6-1,1c0.1,0.2,0.3,0.3,0.5,0.3C183.6,263,184,262,183.7,261.7z"/>
			<path class="st1" d="M186.1,258.8c-0.1,0.2-0.1,0.4,0.1,0.4c0.2,0,0.5-0.1,0.6-0.4c0.1-0.2,0.1-0.4-0.1-0.4
				C186.5,258.4,186.2,258.6,186.1,258.8z"/>
			<path class="st1" d="M182.3,263.4c-0.3,0-0.6,0.2-0.6,0.4c0,0.2,0.3,0.4,0.6,0.4c0.3,0,0.6-0.1,0.6-0.4
				C182.9,263.6,182.6,263.4,182.3,263.4z"/>
			<path class="st1" d="M184.8,260.9c0-0.3-0.1-0.6-0.3-0.6c-0.5,0-0.8,0.6-0.5,0.9C184.3,261.6,184.8,261.5,184.8,260.9z"/>
			<path class="st1" d="M186.6,293.8c1.4-1.3,1.1-2.3-1.1-3.9c-2-1.5-2.2-1.6-3-1.1c-0.6,0.4,0.2,2.6,1.7,4.5
				C185.4,294.8,185.5,294.8,186.6,293.8z"/>
			<path class="st1" d="M171.6,324.4c-0.4-0.7-1-1.6-1.5-1.9c-1.1-0.8-1.1-0.5,0,1.3c1.3,2,1.6,4.4,0.8,7.1
				c-0.3,1.2-0.5,2.3-0.4,2.5C171.8,335.5,172.8,327,171.6,324.4z"/>
			<path class="st1" d="M171.4,340.9c0.3,0,0.3-0.5,0.2-1.2c-0.3-1.3-2.1-5.7-2.3-5.5c-0.1,0,0.3,1.3,0.8,2.7
				c0.5,1.4,0.9,2.9,0.9,3.3C171,340.6,171.2,340.9,171.4,340.9z"/>
			<path class="st1" d="M165.7,319.8c1.1,0.6,1.9,0.7,1.9,0.2c0-0.4-0.9-0.8-2-0.8C164.8,319.3,164.8,319.3,165.7,319.8z"/>
			<path class="st1" d="M166.2,317.3c0.1-0.3,0.2-0.1,0.2,0.3c0,0.6,0.2,0.6,0.5,0.3c0.4-0.4,0.4-0.6-0.1-0.8
				c-0.8-0.5-1.1-0.5-1.1,0c0,0.2-0.1,0.3-0.3,0.1c-0.2-0.1-0.5,0-0.6,0.2c-0.1,0.2,0.1,0.4,0.5,0.4
				C165.6,317.7,166.1,317.5,166.2,317.3z"/>
			<path class="st1" d="M168.2,318.2c-0.4-0.3-0.8-0.5-0.9-0.3c-0.1,0.1,0,0.5,0.4,0.8C168.7,319.4,169.1,319,168.2,318.2z"/>
			<path class="st1" d="M176.1,335.7c1.4-1.4,1.8-2.8,1.8-5.3c0-1.9-1-4.7-1.8-5.2c-0.2-0.1-0.3,1.6-0.3,3.8c0,4.7-0.2,6.5-0.6,6.3
				c-0.2-0.1-0.3-0.1-0.3,0c0,0.1-0.1,0.4-0.2,0.8C174.3,337.1,174.9,336.9,176.1,335.7z"/>
			<path class="st1" d="M171.8,342.1c0.2,0,0.3-0.1,0.1-0.4c-0.1-0.2-0.4-0.4-0.6-0.4c-0.2,0-0.3,0.2-0.1,0.4
				C171.3,341.9,171.6,342.1,171.8,342.1z"/>
			<path class="st1" d="M183.8,317.6c-1,1.7-1,1.8-0.2,1.1c1.3-1.2,1.9-2.6,1.9-4.6l0-1.8l-0.3,1.8
				C184.9,315,184.3,316.6,183.8,317.6z"/>
			<path class="st1" d="M175.5,323.6c-0.1-0.1-0.4-0.1-0.7,0c-0.3,0.1-0.2,0.2,0.2,0.2C175.4,323.8,175.6,323.7,175.5,323.6z"/>
			<path class="st1" d="M159.3,280.1c1.1,0,3.3-1,3.3-1.6c0-0.5-0.5-0.3-1.2,0.3c-0.4,0.3-1.3,0.8-1.9,0.9
				C158.2,280,158.2,280,159.3,280.1z"/>
			<path class="st1" d="M164.8,282.5c0.2-0.6-1.2-3.6-1.5-3.3c-0.5,0.4-0.3,1,0.6,2.4C164.3,282.3,164.7,282.8,164.8,282.5z"/>
			<path class="st1" d="M161.5,280.5c-0.7,0-0.7,0.6,0.1,1.8c0.8,1.2,1.1,1.4,1.6,1C163.4,283,161.9,280.5,161.5,280.5z"/>
			<path class="st1" d="M157.7,280.8c0,0.2-0.5,0.9-1.1,1.6l-0.9,1.3l1.6,0.2c3.1,0.4,3.5,0.4,3.2-0.3c-0.1-0.3-0.4-1-0.5-1.6
				C159.8,281.2,158,280.1,157.7,280.8z"/>
			<path class="st1" d="M157.7,286.6c0.5,0,2.2,0.5,3.6,1.1c1.5,0.6,2.8,1.1,2.9,1.1c0.4,0-1.4-1.2-2.8-1.9
				c-1.5-0.8-6.3-1.5-5.3-0.8C156.4,286.4,157.1,286.6,157.7,286.6z"/>
			<path class="st1" d="M170.4,295.9l-1-1.1l0.9,1.6c0.5,0.9,0.9,1.6,1,1.6C171.7,298,171.2,296.8,170.4,295.9z"/>
			<path class="st1" d="M176,299.6c-0.5-2.8-2.6-7.1-4.4-9.2c-1.7-1.9-5.8-4.7-7.1-4.7c-0.8,0-0.8,0.1,0.6,1.1
				c0.8,0.6,1.9,1.3,2.3,1.6c1.1,0.9,3.4,4.2,4.6,6.7c0.9,2,1,2.7,1.1,6.4c0,3.5-0.1,4.6-0.9,6.4c-0.5,1.2-0.7,2.4-0.6,2.6
				c0.1,0.2,0.1,0.3-0.1,0.2c-0.2-0.1-1,0.7-1.8,1.9c-0.8,1.1-1.3,2-1.2,2c0.2,0,0.9-0.4,1.7-1C174.5,310.8,177,304.8,176,299.6z"/>
			<path class="st1" d="M168.2,286.6c0.1,0.2,0.4,0.3,0.5,0.3c0.5,0,1.3-1.1,1.1-1.4C169.4,285.2,167.9,286.2,168.2,286.6z"/>
			<path class="st1" d="M158.8,278.6c0,0.5,0.4,0.5,1.1,0c0.3-0.2,0.4-0.5,0.3-0.6C159.9,277.6,158.8,278.1,158.8,278.6z"/>
			<path class="st1" d="M161.6,276.8c-0.3-0.1-0.8-0.1-1.1,0c-0.4,0.1-0.2,0.2,0.5,0.2C161.6,277,161.8,276.9,161.6,276.8z"/>
			<path class="st1" d="M193.8,347.5c0.4-0.1,0.5-0.3,0.2-0.6c-0.5-0.5-1.3,0-1,0.5C193.1,347.6,193.5,347.6,193.8,347.5z"/>
			<path class="st1" d="M107.3,299.6c-0.4,0.8-0.8,2.7-1,4.1c-0.2,1.8-0.5,2.9-0.9,3.2c-0.6,0.4-0.6,0.6,0,3.1
				c2.8,10.6,12.4,18.3,25,19.9c6,0.8,15.5-0.5,22.7-2.9c2.1-0.7,4-1.3,4.1-1.3c0.1,0,0-0.2-0.2-0.4c-0.3-0.3-1.9,0-5,0.9
				c-14.1,4-24.7,3.2-33.7-2.9c-4.2-2.8-7.7-6.5-9.8-10.1c-0.6-1.1-1.1-2.2-1.5-3.3c-0.5-1.3-0.5-1.9-0.2-2.3
				c0.3-0.3,0.3-1.2,0.2-2.2c-0.2-1.5,0.2-4.5,0.8-6.6C108,298.5,107.8,298.8,107.3,299.6z"/>
			<path class="st1" d="M150.8,332.9c-0.3-0.8-0.4-0.6-0.2,1.1c0.1,1.3,0.1,1.8-0.1,1.3c-0.3-0.6-0.4-0.4-0.6,1.1
				c-0.4,3.4-2.3,5.8-5.6,7.5c-2.6,1.3-6.7,1.3-9.4-0.1c-3-1.6-5.2-4.6-5.7-8c-0.2-1.3-0.4-1.5-0.6-0.9c-0.4,1.1,0,3.5,0.8,5.2
				c1,2,3.9,4.5,6.2,5.1c4.2,1.3,8.2,0.4,11.3-2.3c1.1-1,1.9-1.6,1.9-1.4c0,0.2-0.8,1.1-1.8,1.9c-2.3,2-6.1,3.3-8.9,3
				c-4.7-0.6-9-4.1-10.3-8.3c-0.2-0.8-0.3-0.8-0.3-0.1c-0.1,0.8,0.6,2.3,1.5,3.6c0.8,0.9,1.7,1.8,2.6,2.7c1.8,1.2,3.9,2.2,5.6,2.6
				c2.1,0.4,5,0.1,7.2-0.8c2.2-0.9,5-3.8,6.1-6.3C151.3,338,151.5,334.5,150.8,332.9z"/>
			<path class="st1" d="M138,340c-2.2-0.6-7.3-3.3-7.9-4.1c-0.6-0.8-0.3,1.1,0.4,2.6c1.4,3,3.2,4.6,6.7,5.7
				c3.9,1.3,9.7-1.1,11.3-4.6c0.7-1.6,1-6.5,0.4-6.8c-0.4-0.3-6.6,1.3-6.6,1.7c0,0.1,0.3,0.4,0.8,0.5c0.4,0.1,0.8,0.4,0.8,0.6
				c0,0.5-0.3,0.4-2.1-0.5c-1.4-0.6-1.9-0.7-3.3-0.4l-1.6,0.3l2.1,1c1.2,0.6,3.1,1.2,4.2,1.4l2.1,0.3l-2.4,0c-2.6,0-5.8-1-7.5-2.2
				c-1-0.8-2.9-1-2.9-0.4c0,0.4,3,2.3,5.1,3.2c0.8,0.4,2.8,0.9,4.2,1.1l2.7,0.5l-2.1,0.3C140.8,340.5,139.6,340.5,138,340z"/>
			<path class="st1" d="M145.6,349.7c0.3-1-0.6-1.6-1.8-1.3c-0.8,0.2-1,0.5-1,1.3c0,0.7,0.2,1.1,0.7,1.3
				C144.4,351.1,145.3,350.6,145.6,349.7z"/>
			<path class="st1" d="M192.5,345.2c-0.4-0.1-0.9-0.5-1.1-0.8c-0.3-0.4-0.5-0.5-0.5-0.1c0,0.3,0.3,0.8,0.6,1.3
				c0.7,0.8,1.6,1,1.6,0.4C193.1,345.6,192.9,345.3,192.5,345.2z"/>
			<path class="st1" d="M180.7,356.9c1.8,0.5,1.8,0.5,2.3-0.8c1.1-2.8,1.5-6,1-8.9c-0.2-1.5-0.6-2.8-0.8-2.8c-0.1,0-0.3-0.2-0.3-0.5
				c0-1.3-0.2-1.8-0.9-2c-0.4-0.1-0.7-0.4-0.6-0.6c0.1-0.2,0-0.3-0.2-0.3s-0.5,0.2-0.6,0.5c-0.1,0.3-0.6,0.6-1,0.7
				c-0.6,0.1-0.7,0.4-0.5,0.9c0.5,1.3,0.6,2.4,0.3,2.4c-0.2,0-0.5-0.3-0.6-0.7c-0.3-1.1-1.1-1.6-2-1.3c-0.7,0.2-0.8,0.4-0.5,1.2
				c0.5,1.2,0.5,2,0,2c-0.2,0-0.4-0.2-0.4-0.5s-0.3-0.9-0.7-1.4c-0.7-0.9-0.8-0.9-1-0.2c-0.1,0.4,0,1.5,0.4,2.5
				c0.8,2.1,0.8,4.8,0,6.1c-0.6,1.1-0.7,1.9-0.3,1.9c1,0,1.6-1.2,2.1-3.6c0.4-2.2,0.5-2.4,0.5-1.1c0,0.8-0.2,2.2-0.5,3
				s-0.6,1.6-0.6,1.6c0,0,0.5,0.3,1,0.5c1.4,0.5,1.9-0.1,2.5-3.2c0.3-1.4,0.6-2.4,0.8-2.3c0.5,0.5,0.3,3.5-0.3,5
				C179.3,356.6,179.2,356.4,180.7,356.9z M181.7,343.6c0.2,0,0.3,0.2,0.1,0.4c-0.1,0.2-0.3,0.4-0.4,0.4c-0.1,0-0.2-0.1-0.2-0.4
				C181.3,343.8,181.5,343.6,181.7,343.6z M181.9,344.8c0.1,0.1-0.1,0.3-0.4,0.6c-0.3,0.3-0.6,0.3-0.7,0.1
				C180.6,345.2,181.7,344.5,181.9,344.8z"/>
			<path class="st1" d="M178.6,358.5c-0.3,0.1-0.2,0.2,0.2,0.2c0.4,0,0.6-0.1,0.5-0.2C179.2,358.5,178.8,358.4,178.6,358.5z"/>
			<path class="st1" d="M166.1,345.4c-0.2,0.1-0.4,1.2-0.4,2.5s-0.2,3.2-0.5,4.2c-0.3,1.1-0.6,2.3-0.8,2.9c-0.1,0.5,0.2,0.1,0.7-1
				c1.1-2.2,1.3-3,1.3-5.8c0-1.1,0.2-1.9,0.4-1.8c0.2,0.1,0.5,0,0.7-0.3c0.6-0.6-0.3-5-1.6-7.8c-1.4-3-5-7.4-7.5-9.2
				c-0.9-0.6-1-0.6-1.8,0l-0.9,0.7l1.4,1.3c2.7,2.3,5.1,5.1,6.6,7.5C165.4,341.4,166.7,345.2,166.1,345.4z"/>
			<path class="st1" d="M149.7,346.5l-0.8-1.4l-1.7,1.2c-1.6,1.1-1.6,1.2-1.1,2c0.7,1.1,0.4,2.5-0.7,3.6c-0.6,0.6-1.1,0.8-2.1,0.6
				c-1-0.2-1.3-0.1-1.3,0.3c1.4,0.9,2.8,1.8,4.2,2.5c0.7-0.2,1.4-0.4,1.9-0.8C150.6,352.9,151.3,349.1,149.7,346.5z"/>
			<path class="st1" d="M137.9,314.5c2.3-0.7,4.9-4.5,5.6-8.3c0.7-3.7-0.9-8.9-3.8-12.2c-1.9-2.1-6.5-4.8-6.5-3.7
				c0,0.2,0.7,0.7,1.6,1.1c2.2,1,4.6,3.5,5.9,6.1c2.3,4.6,1.4,10.9-2.1,15.2C137.3,314.5,137.1,314.7,137.9,314.5z"/>
			<path class="st1" d="M140.1,309.5c0.8-1.5,0.9-2.3,0.9-5.5c0-3.2-0.1-4.1-0.9-5.6c-1.1-2.1-3.1-4.3-5.1-5.3
				c-2.3-1.2-2-0.6,0.6,1.3c1.9,1.4,2.7,2.2,3.6,4.1c1,2,1.2,2.8,1.2,5.2c0,3.6-1.1,6.7-3.1,8.9c-0.8,0.9-1.5,1.7-1.5,1.8
				C135.9,315.1,139.1,311.6,140.1,309.5z"/>
			<path class="st1" d="M136.5,307.5c0.3-0.3,0.6-0.6,0.6-0.8c0-0.2-0.3-0.2-0.6,0.1s-0.6,0.6-0.6,0.8
				C135.9,307.8,136.2,307.7,136.5,307.5z"/>
			<path class="st1" d="M140.2,285.6c3.2,0.8,7.7,0.5,10.4-0.8c3.2-1.4,5.1-3.3,3.4-3.2c-0.4,0-1.6,0.3-2.8,0.8
				c-3.6,1.3-9,0.8-12.9-1c-2.9-1.4-5.7-4.4-7.3-7.7c-1.3-2.7-1.4-3.1-1.4-6.5c0-3.3,0.1-3.9,1.3-6.3c0.6-1.4,0.9-2.3,0.6-1.9
				c-1,1.2-2.8,5.2-3.4,7.6c-0.8,2.9-1.2,3.2-0.8,0.6c0.8-6.4,5.2-12.9,10.8-16c2.3-1.3,1.8-1.4-0.6-0.2c-3,1.5-5.1,3.5-7.3,6.6
				c-2.7,4-3.6,7.2-3.6,12.5c0,3.6,0.1,4.4,0.9,6.1C129.5,280.2,135.1,284.4,140.2,285.6z M140.6,283.5c1.1,0,2.2,0.2,2.3,0.4
				c0.2,0.2-0.6,0.4-2.1,0.4c-1.3,0-2.3-0.1-2.3-0.4C138.6,283.7,139.5,283.5,140.6,283.5z M134.4,281c1.6,1.2,2.2,1.7,1.6,1.7
				c-0.8,0-3.6-1.8-4.1-2.7C131.3,279.2,132,279.5,134.4,281z M129.4,276.5c-0.5-0.6-1.5-3.8-1.5-4.7c0-1,0.6,0,1.1,1.9
				c0.3,1,0.7,2.1,1,2.6C130.6,277.1,130.2,277.4,129.4,276.5z"/>
			<path class="st1" d="M148,318.1c0.5,0,0.6-0.4,0.4-2.6c-0.2-2.7-1.2-5.5-2.8-7.6c-0.5-0.7-1.1-1.2-1.3-1.1c-0.2,0.1,0.3,1,1,2
				c1.7,2.2,2.6,5.4,2.3,7.6C147.4,317.8,147.5,318.1,148,318.1z"/>
			<path class="st1" d="M126.8,278.7c0,0.4,0.7,1.3,1.4,2.1c1.6,1.6,2.3,1.7,0.8,0.1c-0.5-0.6-1.2-1.5-1.6-2
				C126.9,278.2,126.8,278.1,126.8,278.7z"/>
			<path class="st1" d="M153.7,319.9c-0.3,0.1-0.6,0.3-0.6,0.4c0,0.3,0.7,0.1,0.9-0.2C154.1,319.8,154,319.8,153.7,319.9z"/>
			<path class="st1" d="M135,314.2c-0.3,0.1-0.6,0.3-0.6,0.4c0,0.1,0.3,0.1,0.6,0.1s0.6-0.1,0.6-0.4
				C135.5,314.1,135.3,314,135,314.2z"/>
			<path class="st1" d="M138.4,309.7c1.6-3.2,1.1-8.7-1-11.4c-0.8-1-0.8-0.8,0.5,2.1c1.6,3.4,0.4,9.5-2.2,11.5c-0.5,0.5-1,0.9-1,1
				c0,0.5,0.7,0.2,1.7-0.6C137,311.9,137.9,310.7,138.4,309.7z"/>
			<path class="st1" d="M159.6,317.1c0.9,0.3,1.1,0.1,2.3-2.2c0.6-1.4,1.3-3.3,1.4-4.5c0.7-7.3-6.2-14.5-14.2-14.6
				c-3.1,0-5.9,0.7-5.6,1.5c0.1,0.3,0.8,0.5,1.8,0.5c5.3,0,11.2,3.7,13.6,8.4c1,1.9,1.2,2.8,1.2,4.9c0,1.6-0.2,3-0.6,3.7
				c-0.9,1.7-1.4,1.4-0.8-0.4c2.4-6.6-4-14.7-11.8-14.9c-1.8-0.1-2.4,0-2.4,0.5c0,0.3,0.7,0.7,1.8,1c3.9,1,7.1,3.5,8.6,6.5
				c0.8,1.8,1.1,3.6,0.6,3.6c-0.2,0-0.4-0.3-0.4-0.8c0-1.2-1.1-3.5-2.2-4.7c-1.3-1.4-4.7-3.1-6.6-3.4c-1.8-0.3-1.8,0.1,0,1.4
				c3.5,2.3,5.9,6.3,6.6,10.9c0.4,2.5,0.5,2.7,1.2,2.4C155,316.7,158.4,316.7,159.6,317.1z"/>
			<path class="st1" d="M146.1,243.7c0.9,1.9,1.1,2,2,1.5c0.4-0.3,0.2-0.8-0.6-2.4c-0.5-1-0.9-2-1.1-3c-0.5,0.3-0.9,0.5-1.4,0.8
				C145.1,241.6,145.6,242.7,146.1,243.7z"/>
			<path class="st1" d="M239.5,322.9c0.1-0.2,0.1-0.3,0.2-0.5C237.9,322.2,237.8,322.4,239.5,322.9z"/>
			<path class="st1" d="M156.9,238.7c0.9,0.9,1.4,1.1,2.9,1.1h1.8l-1.4-0.9c-1.3-0.9-2.4-2.7-2.7-4c-0.7,0.2-1.3,0.4-2,0.7
				C155.6,236.7,156.1,237.9,156.9,238.7z"/>
			<path class="st1" d="M141.5,331.8c2.6-0.5,7.6-2,8.9-2.9c0.7-0.4,0.8-0.5,0.2-0.4c-0.4,0.1-1.8,0.5-2.9,0.8
				c-10.5,2.7-21,2-28.8-1.7c-7.4-3.5-13.4-10.4-14.7-16.8c-0.7-3.1-1.2-2.9-1,0.4c0.5,6.3,5.3,12.1,13.8,16.6
				c3.7,2,7.4,3.2,11.5,3.8C132.3,332.2,138.5,332.3,141.5,331.8z"/>
			<path class="st1" d="M142.6,242.3c0.3,1.3,0.8,2.4,1,2.4s0.3,0.2,0.3,0.5c0,0.2,0.3,0.8,0.6,1.1c0.9,1,1.1,0.5,0.2-0.9
				c-0.7-1.1-1.2-2.4-1.5-3.9c-0.2,0.1-0.5,0.3-0.7,0.5C142.6,242.1,142.6,242.2,142.6,242.3z"/>
			<path class="st1" d="M225.1,336.5c-3.2-6.2-11.2-8.2-18.4-4.7c-1.3,0.6-2.8,1.7-3.4,2.3l-1.1,1.1l1.1,1.1l1.1,1.1l1.3-0.9
				c6.6-4.4,15-2.9,18.2,3.3c0.8,1.5,1,2.2,1,4.7c0.6-0.5,1.1-1.1,1.6-1.7C226.5,340.5,226,338.2,225.1,336.5z"/>
			<path class="st1" d="M157.4,346.1c0.7,1.5,0.9,2.5,0.9,5.3c0,2.1-0.2,3.9-0.5,4.6c-1,2-1.5,3-2.1,3.8c0.2,0.1,0.4,0.1,0.5,0.2
				c0.4-0.4,0.8-0.9,1.1-1.4c2.5-3.6,3-8.4,1.3-12.2c-1.1-2.5-1.2-3.1-0.3-2.4c0.9,0.8,2,3.4,2.3,5.7c0.2,1.9,0,3.2-1.2,7.5
				l-0.3,0.9l1.6-0.8c3.1-1.6,4.5-5.1,4.2-10.7c-0.2-3.3-0.4-4.1-1.4-6.2c-1.3-2.6-4.6-6.5-7.3-8.5c-1.4-1.1-1.6-1.2-2.8-0.8
				c-1.2,0.4-1.3,0.5-1,1.4c0.2,0.5,0.4,1.6,0.4,2.3c0,1.1,0.3,1.7,1.5,3c2,2.2,2.1,3.5,0.1,1.6c-0.8-0.8-1.6-1.3-1.7-1.2
				c-0.5,0.5-0.3,1.6,0.3,2c0.3,0.3,0.6,0.6,0.6,0.9s-0.3,0.1-0.6-0.2c-0.6-0.6-0.7-0.5-1.8,1.1c-1,1.6-1.1,1.9-0.6,2.9
				c1.4,3.5,1.3,6.9-0.4,9.6c-0.5,0.8-1.3,1.4-2.2,1.8c0.5,0.3,1,0.5,1.6,0.8c1.3-0.5,2.1-1.4,2.5-2.8c0.3-1.1,0.3-1.1,0.3-0.1
				c0,1.2-0.8,2.5-2.2,3.2c0,0,0,0,0,0c1.3,0.6,2.7,1.2,4.1,1.8c0.4-0.4,0.7-0.8,1-1.3c0.7-1.1,1.4-2.7,1.6-3.6
				c0.1-0.9,0.5-1.6,0.7-1.5c0.7,0.1,0.3-4.6-0.6-6.5C155.8,344,156.3,343.8,157.4,346.1z M155.6,335.2c1.6,0,7.1,5.6,7.1,7.3
				c0,1.2-0.6,0.8-1.9-1.4c-0.7-1.2-2.2-3-3.4-4C156.3,336.1,155.4,335.2,155.6,335.2z"/>
			<path class="st1" d="M222.4,340.1c-1.7-3.6-4.9-5.1-9.6-4.8c-1.9,0.1-3.4,0.5-4.9,1.2c-3.1,1.5-3.2,1.6-2.7,2.3
				c0.5,0.5,0.6,0.5,1.4-0.1c1-0.8,1.6-1,1.6-0.5c0,0.2-0.4,0.5-0.9,0.8c-1.2,0.6-1.2,0.8,0.1,3.6c1.3,2.8,2.2,5.7,2.5,8.7
				c0.2,1.5,0.5,2.3,0.9,2.4c0.3,0.1,0.8,0.5,1.2,0.8c0.6-0.4,1.3-0.8,1.9-1.2c-2.8-2.9-3.9-7.7-2.2-10.1c1.2-1.8,2.6-2.4,4.8-2.1
				c2.4,0.3,3.6,1.6,3.6,3.8c0,1.3-0.2,2-1,2.9c-1.1,1.3-1.7,1.5-2.6,0.6c-0.7-0.7-0.8-2.4-0.1-2.5c0.2,0,0.7-0.1,1-0.1
				c0.8-0.1,0.9-1.2,0.2-1.9c-0.8-0.8-2.8-0.8-3.7,0c-1,0.9-0.9,4,0.2,6.2c0.5,0.9,1,1.6,1.6,2.1c2.7-1.9,5.3-3.9,7.7-6.2
				C223.6,344,223.3,341.8,222.4,340.1z M215.3,337.1c-1.4,0-3.2,0.1-4,0.2c-1.3,0.1-1.4,0.1-0.8-0.3c1-0.6,5.7-0.9,6.6-0.4
				C217.6,337,217.3,337.1,215.3,337.1z M221.4,340.7c-0.2,0.1-0.4,0.1-0.4-0.1c0-0.2-0.5-1-1.2-1.8c-0.6-0.7-1.1-1.3-0.9-1.3
				c0.7,0,1.8,0.9,2.3,1.9C221.6,340.1,221.6,340.6,221.4,340.7z"/>
			<path class="st1" d="M180.7,360.5c-1.6-0.8-2.6-1-5.1-1c-4.4,0-7.6,0.8-10.7,2.9c1.3,0.3,2.5,0.5,3.8,0.7
				c1.3-0.5,2.2-0.7,3.9-0.7c1.9,0,3.7,0.5,5.3,1.4c0.2,0,0.3,0,0.5,0c2.1,0,4.3-0.1,6.4-0.3C183.7,362.3,182.3,361.3,180.7,360.5z"
				/>
			<path class="st1" d="M214.6,324.8c-3.7-2.1-4.5-2.4-4-1.7c0.1,0.2-0.4,0.4-1.4,0.4c-0.9,0-2.5,0.1-3.6,0.2
				c-1.4,0.2-1.8,0.1-1.4-0.2c0.3-0.2,1.7-0.6,3.3-0.7c2.7-0.3,2.8-0.3,1.3-0.6c-2.8-0.5-7.9,1.2-11,3.8c-3.1,2.5-5,6.4-2.3,4.6
				c1.1-0.7,1.7-0.8,1-0.1s-0.6,1.4,0.2,1.6c0.4,0.1,0.8,0.2,0.9,0.2c0.1,0,0.7-0.6,1.3-1.5c3.2-4.8,11.9-6.8,17.9-4.1
				C219.8,328,218.8,327.2,214.6,324.8z M201.1,325.6c-0.6,0.2-1.7,1.1-2.6,1.8c-1,0.8-1.6,1.2-1.6,0.8c0-1.1,3.4-3.5,4.5-3.2
				C202,325.2,201.9,325.3,201.1,325.6z"/>
			<path class="st1" d="M195.1,351.3c0.2,0.6,0.5,0.9,0.9,0.8c0.8-0.3,0.7-0.8-0.2-2.3c-0.8-1.3-2.1-1.8-1.6-0.7
				c0.2,0.3,0.4,0.6,0.6,0.6c0.2,0,0.3,0.1,0.1,0.3C194.8,350.2,194.8,350.8,195.1,351.3z"/>
			<path class="st1" d="M199.1,342.9c-2.9-3.7-8.4-6.8-12.6-7.1c-1-0.1-1.9-0.2-2.1-0.3c-0.4-0.4-0.8-0.2-0.7,0.4
				c0.1,0.4,1.2,1,3.1,1.6c1.7,0.6,4.1,1.6,5.3,2.4c2.7,1.6,6.3,5.4,7.4,7.8c1.9,3.8,2.4,8.4,1.5,12.3c0.5-0.2,1-0.4,1.6-0.6
				c0.1-0.3,0.2-0.3,0.4-0.1c0.2-0.1,0.4-0.2,0.6-0.2c0.1-0.2,0.1-0.4,0.2-0.6c1.7-6.3,0.2-13.1-3.9-17.5c-1.8-1.9-5.7-4.6-8.5-5.8
				c-2.9-1.3-2.9-0.9-0.1,0.7c3.4,2,6.9,4.6,8.1,6.2c0.9,1.2,1.9,3.3,1.6,3.3C200.9,345.1,200.1,344.1,199.1,342.9z"/>
			<path class="st1" d="M198.9,333.1c0,0.4,0,0.4,1.1-1.3l0.9-1.3l-1,1.1C199.3,332.3,198.9,332.9,198.9,333.1z"/>
			<path class="st1" d="M200.3,354.2c-0.2-2.8-0.4-3.7-1.6-6.1c-1.4-3-2.5-4.3-5.2-6.5c-1.6-1.4-5.6-3.3-7.5-3.8
				c-1.3-0.3-1.1,0.6,0.4,1.3c2,1,6.2,4.7,7.9,7c2.3,3.1,4.1,7.1,4.5,10.2c0.2,1.5,0.3,3,0.2,3.4c0,0.2-0.1,0.5-0.1,0.8
				c0.3-0.1,0.6-0.2,0.9-0.3c0-0.1,0.1-0.2,0.1-0.3C200.3,358.2,200.4,356.5,200.3,354.2z"/>
			<path class="st1" d="M222.9,329.1c0,0.2,0.3,0.4,0.6,0.4c0.3,0,0.6-0.1,0.6-0.4c0-0.2-0.3-0.4-0.6-0.4
				C223.2,328.8,222.9,329,222.9,329.1z"/>
			<path class="st1" d="M226.3,318.1c-1.1,3.6-3,6.4-4.9,7.2c-1.3,0.5-1.4,0.8-0.7,1.5c0.6,0.6,1.4,0.1,3-1.7
				c1.6-1.8,2.6-4.1,2.9-6.5C226.7,316.9,226.7,316.8,226.3,318.1z"/>
			<path class="st1" d="M202.1,333c-1.7,1.8-1.4,2,0.5,0.4c2.1-1.8,4.5-3.1,7.1-3.6l2.4-0.6l-2.3,0.1
				C207.1,329.5,204.1,330.9,202.1,333z"/>
			<path class="st1" d="M175.1,341.4c-0.3,0.1-0.2,0.2,0.2,0.2c0.4,0,0.6-0.1,0.5-0.2C175.8,341.3,175.4,341.3,175.1,341.4z"/>
			<path class="st1" d="M211.7,328c-3.6-0.5-7.5,0.5-9.6,2.4c-0.9,0.8-2,2.5-2,3.1c0,0.1,0.3-0.1,0.8-0.5c2.3-2.5,7.2-4.6,10.8-4.7
				l2-0.1L211.7,328z"/>
			<path class="st1" d="M223.3,321.8c-0.2-0.1-0.5,0-0.8,0.3c-0.4,0.5-0.4,0.6,0.1,0.6C223.4,322.7,223.8,322.1,223.3,321.8z"/>
			<path class="st1" d="M221.4,323c-0.2,0-0.3,0.2-0.3,0.4c0,0.2,0.3,0.4,0.6,0.4c0.3,0,0.5-0.1,0.4-0.4
				C221.9,323.3,221.6,323,221.4,323z"/>
			<path class="st1" d="M224.4,277.7c0,1,0.9,3,1.9,4s0.9,0.8-0.2-1.1c-0.9-1.6-0.9-2-0.8-4.7c0.1-2.5,0.3-3.2,1.4-4.9
				c1.3-2.1,3.9-4.2,5-4.2c0.4,0,0.8-0.1,0.9-0.4c0.3-0.5-0.8-0.5-2.3,0.1c-1.6,0.6-4.2,3.1-5,4.9
				C224.8,272.6,224.3,275.5,224.4,277.7z"/>
			<path class="st1" d="M209.6,309c-0.2,0-0.4,0.2-0.4,0.4c0,0.2,0.2,0.4,0.4,0.4c0.2,0,0.4-0.1,0.4-0.4
				C209.9,309.2,209.8,309,209.6,309z"/>
			<path class="st1" d="M209.6,310.9c-0.2,0-0.4,1-0.3,2.4c0,1.8,0.1,2.1,0.3,1.4C210,313.3,210,310.9,209.6,310.9z"/>
			<path class="st1" d="M218.6,280.3c-3.1-1.3-9.9-0.6-13.8,1.4c-3.9,2-10.2,10-8.7,11c1,0.6,1.4,0.4,2.6-1.6c1.7-3.1,4.4-5.7,7-7.1
				c2.1-1.1,2.8-1.3,5.3-1.3c2.5,0,3.1,0.1,5.3,1.3c4.2,2.2,6.1,5.3,6.4,10.7l0.2,2.9l1.6-2.5c1.9-2.7,2-3.7,1.1-6.9
				C224.6,284.4,222.3,281.8,218.6,280.3z M212.4,281.9c-0.6,0-0.8-0.1-0.5-0.2c0.3-0.1,0.9-0.1,1.1,0
				C213.3,281.8,213.1,281.9,212.4,281.9z"/>
			<path class="st1" d="M223.9,321.5c0.1,0,0.1-0.1,0.1-0.4c0-0.2-0.2-0.4-0.4-0.4c-0.2,0-0.3,0.2-0.1,0.4
				C223.6,321.4,223.8,321.5,223.9,321.5z"/>
			<path class="st1" d="M222.2,312.2c-0.4,0.5-0.3,0.8,0.1,1.5c1,1.5,0.8,4.6-0.4,6.6l-1,1.7l1-1c2.3-2,3.1-5.5,1.9-8.2
				C223.3,311.5,222.9,311.3,222.2,312.2z"/>
			<path class="st1" d="M224.4,320.4c0.2,0,0.4-0.3,0.4-0.6c0-0.3-0.1-0.5-0.4-0.3c-0.2,0.1-0.4,0.4-0.4,0.6
				C224.1,320.2,224.3,320.4,224.4,320.4z"/>
			<path class="st1" d="M221.2,320.6c1.1-1.5,1.4-3.5,0.7-5.7c-0.3-1.1-0.8-2-1-2c-0.3,0-0.4,0.3-0.2,0.9c1,3.2,1.1,4,0.5,5.9
				C220.8,321,220.8,321.2,221.2,320.6z"/>
			<path class="st1" d="M183.5,338c1.1,0.3,1.3,0.3,1.3-0.1c0-0.5-1.5-0.8-1.7-0.4C182.9,337.7,183.2,337.9,183.5,338z"/>
			<path class="st1" d="M189.5,319.2c-0.2,0.6-0.1,0.8,0.1,0.6c1.3-0.8,1.6-6.7,0.5-9.2c-0.9-2-2.6-3.5-3.2-2.9
				c-0.3,0.3-0.1,0.7,0.8,1.4c1.7,1.4,2.5,3.8,2.3,6.7C189.9,317.2,189.7,318.7,189.5,319.2z"/>
			<path class="st1" d="M185.1,326.5c0-0.5-2.4-0.9-3.4-0.6c-1.1,0.4-0.5,0.9,1.3,1C184.7,327.1,185.1,327,185.1,326.5z"/>
			<path class="st1" d="M179.4,335.4c0.8-2.7,0.3-7.7-0.7-8.4c-0.2-0.1-0.2,0.1,0,0.8c0.6,1.8,0.5,5.1-0.4,6.9
				c-0.8,1.6-3.5,4.2-4.2,4c-0.2-0.1-0.3,0.2-0.3,0.6C173.7,341.8,178.5,338.5,179.4,335.4z"/>
			<path class="st1" d="M198.8,320.9c-0.3,0.1-0.1,0.2,0.5,0.2c0.5,0,0.7-0.1,0.5-0.2C199.5,320.8,199,320.8,198.8,320.9z"/>
			<path class="st1" d="M201.3,320.5c-0.4,0.1-0.1,0.2,0.5,0.2c0.6,0,0.9-0.1,0.7-0.2C202.2,320.4,201.6,320.4,201.3,320.5z"/>
			<path class="st1" d="M204.3,309.1c0.1-6.5-4.5-11-11.7-11.4c-3.7-0.2-5.7,0.2-5.8,1.3c-0.1,0.7,0.1,0.8,2.7,1
				c3.5,0.2,5.8,1.3,8.7,4.1c2.6,2.6,4,5.7,3.9,9.2c0,1.3-0.2,2.9-0.4,3.4c-0.6,1.7,0.2,0.8,1.3-1.2
				C204,313.2,204.2,312.3,204.3,309.1z"/>
			<path class="st1" d="M199.1,306.7c-2.3-3.8-6.2-6.1-10.3-6.1h-1.6v3l0,3l1.3,0.7c1.9,1,3.5,4.1,3.7,7.1c0.2,2.2-0.2,4.3-1.3,7.1
				c-0.6,1.6,1.6-1.2,2.6-3.2c2.1-4.5,1.8-9.2-0.8-11.7c-0.8-0.8-2-1.5-2.7-1.7c-0.9-0.2-1.1-0.3-0.6-0.5c1.9-0.5,4.9,1.7,6.1,4.4
				c1,2.3,0.9,6.1-0.1,9c-0.4,1.2-0.8,2.3-0.7,2.3c0.2,0.2,0.9-0.4,1.4-1.2c0.3-0.6,0.4-0.6,0.3-0.1c-0.3,1.1,1.1,0.8,2.4-0.6
				C201.4,315.4,201.5,310.7,199.1,306.7z M197.2,317.2c-0.1,0.1-0.2-0.1-0.2-0.5c0-0.4,0.1-0.5,0.2-0.2
				C197.4,316.8,197.3,317.1,197.2,317.2z M197.7,310.9c-0.1,0.3-0.3-0.1-0.6-0.9c-0.5-1.7-0.3-2.3,0.3-0.8
				C197.6,309.8,197.7,310.5,197.7,310.9z"/>
			<path class="st1" d="M155.9,245.8c0.2-0.1,1.4-0.6,2.6-1.2c5.9-2.9,13.2-1.7,17.2,2.7c1.3,1.4,1.8,1.8,2.3,1.5
				c0.9-0.5,1.1-1,0.7-1.3c-0.2-0.1-0.4-0.4-0.4-0.6s0.5-0.1,1,0.3c0.7,0.5,1.1,0.5,1.4,0.2c0.3-0.3-0.1-1-1.6-2.6
				c-4.4-4.4-11.3-6.4-15.5-4.3c-2.7,1.3-5,2.8-6.5,4.1C156.3,245.4,155.8,245.9,155.9,245.8z M172.6,242.1c1.1-0.2,4.9,2.1,4.9,3
				c0,0.6-0.6,0.3-1.4-0.5c-0.4-0.5-1.5-1.2-2.4-1.6C172.6,242.6,172.2,242.3,172.6,242.1z M163.8,240.8c0.5-0.5,5.5-0.6,6.1,0
				c0.3,0.3-0.5,0.4-3.1,0.4C164.2,241.2,163.4,241.1,163.8,240.8z"/>
			<path class="st1" d="M175.1,238c-0.4-0.1-1-0.1-1.3,0c-0.4,0.1-0.1,0.2,0.6,0.2C175.2,238.2,175.5,238.1,175.1,238z"/>
			<path class="st1" d="M145.3,249.2c-1,0.3-0.8,0.4,1.8,0.4c3,0,3,0,1.2-0.4C147.1,249,146.1,249,145.3,249.2z"/>
			<path class="st1" d="M162.4,235.6c0.1-0.2,0-0.4-0.2-0.4c-0.2,0-0.4,0.2-0.4,0.4c0,0.2,0.1,0.4,0.1,0.4
				C162.1,236,162.3,235.8,162.4,235.6z"/>
			<path class="st1" d="M185.3,235.1c0.3,0.7,0.7,1.3,0.9,1.3c0.5,0,0.5,0-0.3-1.8c-0.4-0.9-0.7-1.8-0.9-2.8c-0.2,0-0.3,0-0.5,0
				C184.7,233,185,234.3,185.3,235.1z"/>
			<path class="st1" d="M198.6,240l-0.9,1.3c-0.7,1.1-0.9,1.8-0.9,4.2c0,2.6,0.1,3.1,1.1,4.4c0.6,0.8,1.4,1.7,1.9,1.9
				s0.9,0.4,0.9,0.4c0,0-0.3-0.9-0.8-1.9c-1.1-2.4-1.8-6.2-1.5-8.6L198.6,240z"/>
			<path class="st1" d="M149.1,261.5c0,6.8,1.5,10.4,5.1,11.9c2,0.9,3.2,0.8,1.3-0.1c-1.8-0.8-3.7-3.2-4.3-5.3
				c-2.6-8.8,2.2-15.7,10.9-15.7c2.8,0,6.5,1.1,7.9,2.3c0.6,0.6,0.8,0.5,1.6-0.5c0.5-0.6,0.9-1.4,0.9-1.6c0-0.8-2.9-2.7-5.6-3.5
				c-3.7-1.3-7.9-1-11.3,0.7c-2.7,1.3-4.1,2.7-5.7,5.8C149.2,256.9,149.1,257.6,149.1,261.5z"/>
			<path class="st1" d="M148.9,246.4c0.2-0.1,0.4-0.4,0.4-0.6c0-0.2-0.2-0.3-0.4-0.1c-0.2,0.1-0.4,0.4-0.4,0.6
				C148.5,246.5,148.7,246.6,148.9,246.4z"/>
			<path class="st1" d="M161.8,237.6c0.4,0.4,1.3,0.3,1.3-0.1c0-0.2,0.2-0.3,0.4-0.1c0.2,0.1,0.4,0,0.4-0.2c0-0.2-0.5-0.3-1.1-0.3
				C161.5,236.9,161.3,237.1,161.8,237.6z"/>
			<path class="st1" d="M151.6,247.9c0-0.2-0.3-0.3-0.6-0.3s-0.6,0.1-0.6,0.3c0,0.1,0.3,0.3,0.6,0.3
				C151.3,248.2,151.6,248,151.6,247.9z"/>
			<path class="st1" d="M233.4,280.9c0.2,0-0.1-6.5-0.3-6.7c-0.3-0.3-1,1.6-1,2.7c0,0.5,0.3,1.6,0.6,2.5
				C233,280.2,233.3,280.9,233.4,280.9z"/>
			<path class="st1" d="M231.1,269.9c1.6-1.4,1.8-2.1,0.3-1.6c-4.7,1.8-6.6,9.5-3.2,13c1.4,1.4,1.6,1.3,0.9-0.3
				c-0.8-1.9-0.8-6.6,0-8.5C229.5,271.7,230.4,270.5,231.1,269.9z"/>
			<path class="st1" d="M232.4,270.7c-0.3-1.3-2.1,1.3-2.6,3.5c-0.5,2.3,0,5.4,1,7c0.9,1.2,1.1,0.7,0.4-1c-0.8-1.9-0.6-4.9,0.5-7.1
				C232.1,272.1,232.5,271,232.4,270.7z"/>
			<path class="st1" d="M231.9,261.5c-1.5,0-2,0.6-1.3,1.9c0.3,0.5,0.8,0.8,1.5,0.8c1.1,0,1.1-0.1,1.1-1.3
				C233.2,261.5,233.1,261.5,231.9,261.5z"/>
			<path class="st1" d="M226.2,259.9c-1.6,0-1.3,5.1,0.3,6.9c0.5,0.6,0.7,0.5,2.4-0.5c1-0.6,2.4-1.3,3.1-1.5
				c1.1-0.3,1.1-0.3-0.3-0.1c-1.3,0.1-1.7,0.1-2-0.5c-0.5-1-0.5-2.6,0-2.9c0.5-0.3,0.5-1,0-1c-0.2,0-0.9-0.3-1.5-0.8
				c-1-0.7-2.1-0.7-1.7,0.1C226.7,259.8,226.5,259.9,226.2,259.9z"/>
			<path class="st1" d="M206.5,277.5c-2.4,0.5-6.4,2.2-7.2,3.2c-0.3,0.3-0.7,0.6-1,0.6c-0.7,0-4.8,4.6-5.8,6.5l-0.9,1.7l0.9-1.1
				c1.9-2.5,6.4-6.6,8.3-7.6c4.3-2.1,11.2-3.1,15.5-2.1c2.2,0.5,2.1,0.2-0.3-0.6C213.4,277.2,209.2,276.9,206.5,277.5z"/>
			<path class="st1" d="M216.5,275c0.3,0.1,0.3,0.1,0.1-0.2c-0.3-0.5-1-0.2-0.9,0.5c0,0.3,0.1,0.3,0.2,0
				C216,275,216.3,274.9,216.5,275z"/>
			<path class="st1" d="M203.3,238.3c-1.7,2-1.7,6.4,0,9.6c0.5,0.9,0.7,1.1,0.9,0.6c0.5-0.8,0.4-1.2-0.1-0.9
				c-0.2,0.1-0.3,0.1-0.2-0.1c0.1-0.2,0-1-0.3-1.8c-0.8-2-0.7-4.8,0.3-6.8C205,236.9,204.7,236.6,203.3,238.3z"/>
			<path class="st1" d="M199.1,239.4c0.1,0,0.3-0.1,0.4-0.4c0.1-0.2,0-0.4-0.4-0.4c-0.3,0-0.5,0.2-0.4,0.4
				C198.8,239.3,199,239.4,199.1,239.4z"/>
			<path class="st1" d="M184.4,298.5c0,0.4,0.1,0.6,0.2,0.5c0.1-0.1,0.1-0.5,0-0.7C184.5,298,184.4,298.1,184.4,298.5z"/>
			<path class="st1" d="M222.2,248.1c-1.1-0.9-2.1-1.8-3.2-2.7c-0.7,0.6-1.6,1.6-3,3.2c-3,3.4-5,7.3-5.1,10.5
				c-0.2,2.7,0.4,6.4,1.4,8.7c0.9,2,3.2,4.6,4.6,5.1l1.1,0.4l-0.8-1.6c-1.8-3.6-2.3-7.5-1.3-10.8c0.6-1.9,1.6-3.5,1.9-3.1
				c0.1,0.1-0.1,1.2-0.6,2.4c-1.1,3.3-0.9,6.8,0.7,10.1c0.7,1.4,1.8,3,2.4,3.5c1.6,1.4,1.7,1.3,0.2-0.7c-2-2.7-2.7-4.9-2.7-8.8
				c0-2.6,0.2-3.8,0.7-4.9c0.9-1.9,1.2-1.6,0.4,0.3c-0.9,2-0.9,6.8-0.1,7.5c0.3,0.3,0.7,1,0.8,1.6c0.5,2.2,4,6.3,4,4.6
				c0-0.3,0.3-1.2,0.6-1.9c0.6-1.2,0.6-1.4,0-2.5c-0.3-0.6-0.6-1.4-0.6-1.7c0-0.3,0.3,0.1,0.6,0.8c0.3,0.6,0.8,1.2,1.1,1.2
				c0.9,0,0.9-1,0.1-2.7c-1.1-2.2-1.3-5.8-0.5-7.7c0.6-1.4,0.6-1.4-0.7-3.3c-1.1-1.6-1.3-1.8-1.8-1.3c-0.3,0.3-0.6,0.5-0.7,0.4
				c-0.1-0.1,0.1-0.5,0.4-0.9c0.6-0.6,0.5-2.4-0.1-2.4c-0.1,0-0.8,0.7-1.3,1.5c-0.6,0.8-1.2,1.4-1.4,1.3c-0.4-0.2,0.1-1.4,1.6-3.2
				C221.7,250.3,222,249.5,222.2,248.1z M217.6,251.1c-0.9,1-2.3,2.9-3,4.2c-0.7,1.3-1.3,2.4-1.4,2.4c-0.1,0-0.3-0.3-0.4-0.6
				c-0.3-0.8,1.6-3.8,3.7-6C218.8,248.8,219.9,248.7,217.6,251.1z"/>
			<path class="st1" d="M214.3,245c-3.8,4.5-5.5,7.9-6.2,12.6c-0.3,2.1-0.3,2.9,0,3.3c0.2,0.3,0.6,0.5,0.7,0.3
				c0.1-0.1,0.5,1,0.7,2.5c0.2,1.5,0.8,3.4,1.2,4.2c1.1,2,1.2,1.9,0.3-0.4c-0.4-1-0.8-3-1-4.5c-0.1-1.4-0.4-2.8-0.6-3
				c-0.5-0.6,0.5-4.4,1.8-6.9c1.2-2.4,3.2-5,5.7-7.6l1-1c-0.6-0.5-1.2-0.9-1.9-1.3C215.6,243.5,215.1,244.1,214.3,245z"/>
			<path class="st1" d="M207.3,241.3c0,0.3,0.6-0.2,1.3-1c0.3-0.3,0.6-0.6,1-1c-0.3-0.2-0.6-0.3-1-0.5
				C207.9,239.7,207.3,240.7,207.3,241.3z"/>
			<path class="st1" d="M205.1,239.1c-1,2-1.3,3.5-0.8,3.8c0.4,0.2,0.4,0.4,0,0.5c-0.5,0.2-0.3,1.7,0.3,1.7c0.2,0,0.3,0.1,0.3,0.3
				c0,0.1,0,0.5,0,0.8c0,0.4,0.1,0.4,0.5,0c0.3-0.3,0.4-1.1,0.3-1.9c-0.3-2.6,0.2-4,1.9-5.8c0,0,0.1-0.1,0.1-0.1
				c-0.5-0.3-1-0.5-1.6-0.8C205.8,238.1,205.4,238.6,205.1,239.1z"/>
			<path class="st1" d="M223.5,249.3c0.1,1.5,0.7,3.4,1.5,4.8c1.4,2.4,4.2,4.6,6.8,5.4c0.3,0.1,0.5,0.2,0.8,0.2
				c-0.3-0.4-0.5-0.7-0.8-1.1c-1.8-0.6-3.7-1.6-4.7-2.8c-1.1-1.2-0.9-1.1,1.8,0.8c0.6,0.4,1.5,0.8,2.3,1.2c-0.3-0.4-0.5-0.7-0.8-1
				c-0.8-0.4-1.6-0.9-2.4-1.6c-1.6-1.3-2.4-2.6-2.7-4.2C224.7,250.4,224.1,249.8,223.5,249.3z"/>
			<path class="st1" d="M209.6,241c-1.2,1.6-0.5,1.3,1.8-0.7c-0.2-0.1-0.5-0.3-0.7-0.4C210.3,240.1,209.9,240.5,209.6,241z"/>
			<path class="st1" d="M239,288.8c0,0.5,0.1,0.7,0.2,0.5c0.1-0.3,0.1-0.7,0-1C239.1,288.1,239,288.3,239,288.8z"/>
			<path class="st1" d="M238.9,279c-0.4-0.3-0.7-0.4-0.7-0.1c0,0.7,2.4,2.3,4.5,3.1c-0.1-0.3-0.1-0.6-0.2-1
				c-0.4-0.1-0.8-0.3-1.2-0.5C240.3,280,239.2,279.4,238.9,279z"/>
			<path class="st1" d="M237,274.2c0.5,1.9,2.7,4,5,5.1c-1.1-4-2.6-7.8-4.5-11.4C236.7,270,236.5,272.3,237,274.2z"/>
			<path class="st1" d="M226.5,252.9c0.8,1.4,1.9,2.4,3.4,3.2c-1.3-1.6-2.6-3.1-4-4.5C226.1,252.1,226.3,252.5,226.5,252.9z"/>
			<path class="st1" d="M172.9,232c0.5,1.9,2.4,4.2,3.7,4.6c0.8,0.2,0.9,0.1,0.7-0.6l-0.2-0.9l0.4,0.9c0.3,0.5,0.7,0.8,1,0.8
				c0.6,0,0.6,0.2-0.5-2.5c-0.4-0.9-0.6-1.8-0.8-2.8c-0.5,0-0.9,0-1.4,0c0.1,0.2,0.2,0.5,0.3,1c0.2,0.9,0.4,1.6,0.3,1.6
				c-0.3,0-0.9-2-0.8-2.6c-0.9,0-1.9,0.1-2.8,0.2C172.9,231.8,172.9,231.9,172.9,232z"/>
			<path class="st1" d="M168.2,232.7c0-0.1-0.1-0.2-0.1-0.4c-0.2,0-0.3,0.1-0.5,0.1C168.1,233.4,168.6,233.8,168.2,232.7z"/>
			<path class="st1" d="M167.2,235.3c0.5,0.8,1.3,1.4,1.7,1.4c0.6,0,0.6-0.1-0.3-1.2c-0.8-0.9-1.4-2-1.8-3.1
				c-0.3,0.1-0.6,0.1-0.9,0.2C166.1,233.6,166.6,234.5,167.2,235.3z"/>
			<path class="st1" d="M161,234.2c-0.4-0.1-1-0.1-1.3,0c-0.4,0.1-0.1,0.2,0.6,0.2S161.4,234.3,161,234.2z"/>
			<path class="st1" d="M171.3,233.6c1.2,1.6,1.4,1.6,0.6-0.1c-0.2-0.5-0.3-1-0.4-1.6c-0.4,0.1-0.9,0.1-1.3,0.2
				C170.5,232.5,170.9,233.1,171.3,233.6z"/>
			<path class="st1" d="M190,233.6c-0.3-0.4-0.6-0.8-0.8-1.3c-0.3-0.1-0.6-0.1-0.9-0.1c0.1,0.4,0.6,1.1,1.1,1.7
				C190.9,235.6,191.3,235.4,190,233.6z"/>
			<path class="st1" d="M160.1,235.4c-0.3,0.1-0.5,0.4-0.4,0.6c0.3,0.5,0.8,0.5,1.1,0C161.3,235.4,160.9,235.1,160.1,235.4z"/>
			<path class="st1" d="M240.3,296.6c1.1,2.4,2.4,4,4.2,5c0.1-0.9,0.1-1.7,0.1-2.6c-1.6-0.9-3.1-2.1-4.1-3.7
				C239.1,293.3,239,294,240.3,296.6z"/>
			<path class="st1" d="M186.9,234.4c0.3,0.9,0.8,1.6,1.1,1.6c0.6,0,0.7-0.6,0.2-0.9c-0.7-0.4-1.2-1.7-1.4-3c-0.2,0-0.4-0.1-0.7-0.1
				C186.3,232.8,186.6,233.6,186.9,234.4z"/>
			<path class="st1" d="M181.5,237.1c1.4,1.7,1.9,1.5,0.8-0.4c-0.6-1.2-0.9-2.5-1-4.8c0-0.1,0-0.2,0-0.3c-0.9,0-1.7-0.1-2.6-0.1
				C179.2,233.5,180.2,235.5,181.5,237.1z"/>
			<path class="st1" d="M196.4,236.2c1.1,0.5,2.1,1.1,2.3,1.3c0.1,0.2,0.5,0.3,0.9,0.2c0.5-0.2,0.5-0.3-0.3-0.8
				c-0.7-0.4-1.9-1.6-3.2-2.9c-1.2-0.3-2.4-0.6-3.7-0.9C193.6,234.4,195,235.6,196.4,236.2z"/>
			<path class="st1" d="M226.4,326.3c0.6,0.7,0.6,0.7,1.5-1.1c1-2,1.4-7.2,0.6-7.9c-0.4-0.3-0.5,0.1-0.7,2.2c-0.1,1.4-0.6,3.4-1,4.4
				C226.2,325.4,226.1,326,226.4,326.3z"/>
			<path class="st1" d="M225.3,326.6c-0.1,0.1-0.1,0.3,0.1,0.6c0.3,0.6,0.6,0.5,0.3-0.1C225.6,326.7,225.4,326.5,225.3,326.6z"/>
			<path class="st1" d="M225.5,315.4c-0.1-0.3-0.2-0.2-0.2,0.2c0,0.4,0.1,0.6,0.2,0.5C225.6,316,225.6,315.6,225.5,315.4z"/>
			<path class="st1" d="M225.2,330.9c0.5-0.1,2-0.2,3.2-0.2c1.8,0,2.1-0.1,1.6-0.5c-0.8-0.5-4.1-0.2-5.1,0.5
				C224.4,331,224.4,331.1,225.2,330.9z"/>
			<path class="st1" d="M224.9,328.4c0.2,0,0.3-0.1,0.2-0.4c-0.1-0.2-0.4-0.4-0.6-0.4c-0.2,0-0.3,0.2-0.1,0.4
				C224.4,328.2,224.7,328.4,224.9,328.4z"/>
			<path class="st1" d="M196,322.5c1.2-0.5,2.1-1,2.1-1.1c0-0.3-3.2,1-5.1,2.1c-2,1.2-6.1,4.9-6.8,6.3c-0.2,0.4,0.3,0,1.2-1.1
				C189.3,326.5,193,323.8,196,322.5z"/>
			<path class="st1" d="M190.5,328.8c0.3-0.6,0.6-1.1,0.9-1.1c0.2,0,0.3-0.1,0.1-0.3c-0.3-0.3-1.5,0.9-1.9,1.9
				C189.2,330.4,190,329.9,190.5,328.8z"/>
			<path class="st1" d="M220.1,319.8c1-2.4,0.4-5.8-1.1-5.8c-0.8,0-0.8,0.3-0.1,1.5c1.1,1.8,0.6,4.1-1.1,6c-0.9,1-0.6,1.1,0.8,0.2
				C219.1,321.3,219.8,320.4,220.1,319.8z"/>
			<path class="st1" d="M191.9,329.6c0.4-0.5,1.6-1.9,2.8-3.2c1.7-1.9,1.9-2.1,0.8-1.3c-1.4,1-4.2,4.5-4.2,5.1
				C191.3,330.3,191.6,330,191.9,329.6z"/>
			<path class="st1" d="M240.2,321.3c0.3-0.8,0.6-1.6,0.9-2.4c-2.6-0.3-4.6-1-7.1-2.5c-2.6-1.5-6.1-5-7.1-7
				c-0.8-1.6-1.1-1.8-2.1-1.8c-1.3,0-1.3,0.2,0.7,3.6c2.7,4.6,8,8.7,12.9,9.9C239,321.1,239.6,321.2,240.2,321.3z"/>
			<path class="st1" d="M243,293.2c0.3,0.7,0.9,0.7,1.2,0c0.3-0.8-0.1-1.1-0.8-0.8C243,292.5,242.9,292.9,243,293.2z"/>
			<path class="st1" d="M241.1,292.9l-0.6-1.2l0.2,1.3c0.3,1.9,1.9,3.9,3.9,5.2c0-0.2,0-0.4,0-0.6c0-0.3,0-0.6,0-0.9
				C243.1,295.8,241.9,294.4,241.1,292.9z"/>
			<path class="st1" d="M236.7,287.3c0,0.3-0.3,1.3-0.6,2.1c-1.5,4.1,0.1,10.7,3.3,14c1.4,1.4,2.6,2.1,4.6,2.8
				c0.1-1.1,0.3-2.1,0.3-3.2c-0.2-0.1-0.5-0.3-0.8-0.5c-3.9-2.4-6.1-6.6-6.3-11.9c0-2.4,0.1-3.4,0.8-4.8c0.6-1.2,0.7-1.9,0.4-2
				s-0.3-0.1-0.1,0.1c0.1,0.3,0.1,0.5-0.2,0.5s-0.3,0.1-0.2,0.2c0.1,0.1-0.1,0.7-0.5,1.2C237,286.2,236.7,286.9,236.7,287.3z"/>
			<path class="st1" d="M242.3,289.6c-0.4,0-0.4,0.2-0.1,1.4c0.1,0.6,0.4,0.8,0.6,0.5C243.3,291.2,242.9,289.6,242.3,289.6z"/>
			<path class="st1" d="M230.4,325.8c-0.2-0.2-0.6,0.1-1,1l-0.6,1.4l1-1C230.3,326.5,230.6,326,230.4,325.8z"/>
			<path class="st1" d="M236.5,307.2c-0.1-0.3,0.3-0.1,1,0.5c0.7,0.5,2.3,1.6,3.6,2.2c0.9,0.5,1.5,0.8,2.2,1
				c0.2-1.1,0.4-2.2,0.6-3.3c-4.3-1.4-7.2-4-8.7-8c-1.3-3.2-1.4-8.9-0.3-12.4c1.3-4.4,1.3-4.3,0.2-3c-0.5,0.6-1,1.4-1,1.6
				c0,0.2-0.1,0.5-0.3,0.5s-0.6,1.1-1,2.5c-0.5,1.8-0.6,3.2-0.5,5.6c0.2,2.4,0.1,3-0.2,2.4c-0.2-0.4-0.4-2.4-0.4-4.4
				c0-2.9,0.2-4.1,1-6.4l1-2.8l-1.1,0.6c-1.5,0.8-3.3,2.9-4.1,4.9c-1.3,3.5,0,8.7,3.3,13c1.1,1.4,1.8,2.7,1.8,2.9
				c-0.1,0.4-2-1.5-3.6-3.7l-0.8-1.1l0.2,1.5c0.1,1.2,0.1,1.3-0.2,0.6c-0.2-0.5-0.3-1.6-0.4-2.4c0-0.8-0.2-1.4-0.5-1.4
				c-0.3,0-0.4,0.7-0.2,2.3c0.1,1.3,0,2.3-0.1,2.3c-0.2,0-0.3-0.5-0.3-1.1c0-2.2-0.6-1.1-0.9,1.5c-0.2,2.4-0.1,2.9,0.8,4.9
				c2.1,4.2,7.3,8.3,12.6,9.8c0.4,0.1,0.9,0.2,1.5,0.3c0.1-0.3,0.2-0.6,0.3-0.9c-0.8,0.1-2.2-0.2-3.5-0.6c-2.3-0.8-5.4-2.8-7.2-4.8
				c-2.8-3-2.5-3.5,0.4-0.5c3.1,3.2,6.7,5.2,9.2,5.2c0.5,0,0.9,0.1,1.2,0.2c0.5-1.5,0.9-3.1,1.2-4.7c-0.3-0.1-0.5-0.2-0.8-0.4
				C239.6,310.1,236.9,308.1,236.5,307.2z M232.7,298.6c-0.1,0.1-0.2-0.1-0.2-0.5c0-0.4,0.1-0.5,0.2-0.2
				C232.8,298.1,232.8,298.5,232.7,298.6z M227.7,306.6c-0.2,0.2-0.6-1-0.6-1.5c0-0.3,0.2,0,0.4,0.5
				C227.7,306,227.8,306.5,227.7,306.6z M234.4,311.8c-1.9-1.3-4.3-3.8-5.2-5.5c-1.4-2.7-1.1-3.1,0.3-0.5c1.3,2.3,3,4.4,5,5.8
				C235.9,312.5,235.7,312.7,234.4,311.8z"/>
			<path class="st1" d="M234.6,279.8c0.1,0.4,0.3,0.6,0.5,0.5c0.1-0.1,0-0.4-0.3-0.7C234.4,279.3,234.4,279.3,234.6,279.8z"/>
			<path class="st1" d="M242,283c-0.9-0.4-1.7-0.6-1.8-0.5c-0.1,0.1,0.2,0.7,0.7,1.4c0.5,0.7,1.4,1.4,2.6,2.1
				c-0.2-0.9-0.3-1.8-0.5-2.7C242.6,283.3,242.3,283.1,242,283z"/>
			<path class="st1" d="M235.1,270.3c0-1.5-0.1-1.6-0.3-0.9c-0.1,0.5-0.3,1.3-0.3,1.8c0,0.5,0.1,0.8,0.3,0.8
				C235,272.1,235.1,271.3,235.1,270.3z"/>
			<path class="st1" d="M108.4,300.6c-0.2,0.7-0.4,3-0.4,5.1c0,3.4,0.1,4,1.1,6.1c1.4,3.1,3.6,5.6,6.8,8.3c4.8,4,8.6,5.8,13.8,6.9
				c3.9,0.8,11,0.8,16.1-0.2c2.4-0.4,4.4-0.8,4.4-0.8c0.1,0-2.5-0.1-5.7-0.1c-4.6,0-6.4-0.2-8.9-0.9c-7.1-1.9-14.8-6.8-18.2-11.5
				c-1.4-1.9-0.2-1.1,3.4,2.3c2.8,2.8,4.2,3.7,7.1,5.1c6.4,3.2,11.5,3.9,23.2,3.3c1.8-0.1,3.7,0,4.3,0.1c1.4,0.4,1.3-0.3,0-1
				c-0.8-0.4-2.6-0.5-7.9-0.5c-7.7,0.1-10.6-0.4-15.6-2.3c-1.6-0.6-4.2-1.9-5.6-2.8c-2.6-1.7-6.8-5.4-6.8-6.1c0-0.2,0.9,0.6,2.1,1.7
				c4,3.9,9.7,6.7,16.3,8.1c3.2,0.6,12.5,0.8,12.5,0.3c0-0.5-1-0.8-2.6-0.8c-1,0-1.2-0.1-0.9-0.3c0.6-0.4-1.3-1.1-6.9-2.5
				c-2.1-0.5-5.5-1.8-7.6-2.8c-7.8-3.8-11-7.1-11-11.7c0-2.9,0.5-4.6,2-6.1c2.1-2.2,5.6-2.2,7.8,0.1c1.6,1.7,1.7,3.8,0.3,5.9
				c-1.1,1.6-2.3,2-3.9,1.5c-2.4-0.8-1.1-5.3,1.4-5c1.4,0.1,1.3,1.6-0.1,1.6c-1.2,0-1.8,0.8-1.7,1.9c0.2,1.1,1.8,1.2,2.9,0.2
				c1.9-1.8,0.5-6-2.2-6.6c-2.4-0.5-4.8,1.5-5.8,4.8c-0.3,1.1-0.3,1.8,0.2,3c1.2,3.1,2.8,4.1,6.2,4.1c2.7,0,3.9-0.6,6.1-2.9
				c1.5-1.7,1.6-1.8,1.6-4.1c0-3-0.9-5.1-3.3-7.5c-3.5-3.5-8.5-4.8-12.1-3.2c-1.4,0.6-2.1,1.3-3.3,3.1c-0.8,1.3-1.6,3-1.8,3.8
				s-0.4,1.5-0.6,1.5c-0.7,0-0.4,3.4,0.6,6.8c0.2,0.6-0.1,0.4-0.6-0.6c-0.7-1.3-0.8-2.1-0.8-4.9c0-3.7,0.7-5.8,2.7-8.5
				c0.7-1,0.8-1.1,0.3-0.8c-1.2,0.7-2.8,3.2-3.6,5.5c-1.1,3.3-1,6.1,0.4,9.1c1.2,2.4,1.3,3.6,0.2,2.2c-2.1-2.7-2.8-8.4-1.5-11.9
				c1.3-3.4,1.3-3.3-0.2-2.4C111.2,295.3,109,298.5,108.4,300.6z M139.2,319.6c0.7,0,5.6,1.1,5.8,1.3c0.3,0.3-2.2,0.2-3.9-0.2
				C139.6,320.4,138.3,319.6,139.2,319.6z M132.9,297.7c0.2,0.4,0.3,0.8,0.2,0.9c-0.1,0.1-0.3-0.1-0.4-0.4
				C132.4,297.2,132.4,296.9,132.9,297.7z M128.9,294.2c0.2,0,0.6,0.3,0.9,0.6c0.6,0.7,0.4,0.7-0.5,0
				C128.9,294.4,128.7,294.2,128.9,294.2z M124.7,294.6c0.4,0,0,0.3-0.8,0.7c-0.8,0.4-1.9,1.1-2.4,1.6c-0.4,0.5-0.9,1.3-1,1.7
				c-0.2,0.6-0.2,0.6-0.2-0.2C120.2,296.9,123,294.5,124.7,294.6z M116.4,316.4c0.7,0.4,1.2,0.9,1.2,1.1c0.1,1.7-6.6-4.3-7.1-6.4
				c-0.3-1.4,0-1.6,0.9-0.4C113.2,313.4,115.3,315.7,116.4,316.4z"/>
			<path class="st1" d="M124.1,334.5c0.2,0,0.4-0.3,0.4-0.6c0-0.3-0.1-0.6-0.2-0.6s-0.2,0.3-0.4,0.6
				C123.8,334.2,123.9,334.5,124.1,334.5z"/>
			<path class="st1" d="M126.1,336.1c0.2-1.8,0.1-2.4-0.2-2.3c-0.4,0.1-0.6,1.7-0.5,3.4c0.2,0.3,0.5,0.6,0.7,0.9
				C126,337.6,126,337,126.1,336.1z"/>
			<path class="st1" d="M141.6,350.1v-1.4l-0.5,1.7c-0.2,0.5-0.4,0.9-0.7,1.4c0.2,0.1,0.4,0.3,0.6,0.4
				C141.4,351.6,141.6,350.8,141.6,350.1z"/>
			<path class="st1" d="M116.4,286.7l-1.3,0.5l2.1,0.2c2,0.2,3.4,0.1,4.6-0.3c0.5-0.2,0.5-0.2,0-0.5
				C121,286,117.9,286.1,116.4,286.7z"/>
			<path class="st1" d="M174.9,358c2,0.3,2.2,0.2,1.6-0.3c-0.9-0.9-8.1-0.8-10.7,0.1c-2.6,1-5.5,2.6-5.3,3c0.2,0.3-0.2,0.5-0.8,0.4
				c0.4,0.1,0.7,0.2,1,0.3c2.1-1.3,4.2-2.2,6.8-2.8C171.5,357.8,172.6,357.6,174.9,358z"/>
			<path class="st1" d="M163.4,361.1c-0.4,0.2-0.8,0.5-0.8,0.6c0,0.1,0.3,0,0.8-0.2s0.8-0.5,0.8-0.6
				C164.1,360.8,163.8,360.9,163.4,361.1z"/>
			<path class="st1" d="M126.1,289.2c1.2,0,1.4-0.1,1-0.4c-0.8-0.5-3.2-0.5-2.9,0C124.4,289.1,125.2,289.2,126.1,289.2z"/>
			<path class="st1" d="M133.2,313.5c0,0.2,0.1,0.4,0.1,0.4c0.1,0,0.3-0.1,0.4-0.4c0.1-0.2,0-0.4-0.1-0.4
				C133.4,313.2,133.2,313.4,133.2,313.5z"/>
			<path class="st1" d="M128.1,286c-0.1-0.3-0.2-0.7-0.2-0.9c0-0.8-2.2-2.8-3.9-3.7c-1.7-0.8-2.3-0.9-4.5-0.8
				c-2.1,0.1-2.8,0.3-4,1.2c-1.8,1.4-1.8,1.8,0.1,1.2c0.8-0.3,2.5-0.5,3.9-0.5c3.1,0,6.2,1.3,7.2,3C127.4,286.6,128.5,287,128.1,286
				z"/>
			<path class="st1" d="M188.2,333.7c-0.3-0.2-0.9-0.3-1.3-0.3c-0.6,0-0.6,0.1,0.2,0.3C188.4,334.1,188.9,334.1,188.2,333.7z"/>
			<path class="st1" d="M130.9,312.6c0,0.3,1.1,0.1,1.3-0.2c0.1-0.2-0.1-0.3-0.5-0.1C131.3,312.4,130.9,312.6,130.9,312.6z"/>
			<path class="st1" d="M234.4,330.3c-0.3,0,0.1,0.3,0.9,0.7c0.1,0,0.1,0,0.2,0.1c0.1-0.1,0.1-0.2,0.2-0.3
				C235.1,330.5,234.6,330.3,234.4,330.3z"/>
			<path class="st1" d="M225.7,332.7c-0.3,0.3,1.4,1.7,2.2,1.8c0.5,0,2.3,0.9,4.1,2c0.5-0.7,1.1-1.5,1.6-2.2
				C230.5,333.1,226.1,332.3,225.7,332.7z"/>
			<path class="st1" d="M171.4,363.5c1.2,0.1,2.4,0.2,3.7,0.3c0,0,0,0,0,0C174.2,363.4,172.8,363.3,171.4,363.5z"/>
			<path class="st1" d="M230.4,337.9c-2.7-1.3-3.2-1.4-3-0.3c0.1,0.5,0.5,0.8,1.1,0.8c0.4,0,1.1,0.2,1.8,0.4
				c0.2-0.2,0.3-0.4,0.5-0.6C230.6,338,230.5,337.9,230.4,337.9z"/>
			<path class="st1" d="M233.3,322.1c-0.5-0.8-0.6-0.9-1.1-0.5c-0.5,0.4-0.6,0.3-0.4-0.1c0.1-0.3,0-0.8-0.3-1.1
				c-0.5-0.4-0.5-0.3-0.5,0.5c0,1.3,0.4,2.2,0.8,1.9c0.2-0.1,0.2,0.1,0.1,0.4c-0.1,0.3,0.2,1.2,0.7,2c0.9,1.4,2.4,2.7,4,3.8
				c0.5-0.8,0.9-1.7,1.3-2.6C236,325.3,233.9,323.4,233.3,322.1z"/>
			<path class="st1" d="M192.8,359.9c0-0.6,0.1-1.1,0.3-1.3c0.6-0.3,0.3,1.8-0.4,3.6c0.3-0.1,0.6-0.1,0.8-0.2c0.8-2,0.9-3,0.9-6.5
				c0-3.9-0.1-4.3-1.1-6c-1.1-1.9-3.7-4.6-5.6-6l-1.2-0.8l1,1.5c1.2,1.9,2.2,5.1,2.2,7.1s-1,5.7-2.1,7.6c-0.6,1.1-0.7,1.7-0.5,1.9
				c0.2,0.2,1,1.1,1.8,2c1-0.2,2-0.4,3-0.6C192.4,361.4,192.8,360.3,192.8,359.9z M191.8,348.9c1,0.9,2.2,4.2,2.1,6
				c-0.2,2.8-1,2.5-0.9-0.3c0-1.7-0.2-2.9-0.8-4.3C191.6,349.1,191.4,348.6,191.8,348.9z"/>
			<path class="st1" d="M198.1,358.1c0-2.9-0.8-5.2-1.7-5.4c-0.7-0.1-0.8,0.1-0.6,2.7c0.1,2.2-0.2,4.2-0.9,6.2
				c0.9-0.2,1.9-0.5,2.8-0.8C197.9,359.9,198.1,358.9,198.1,358.1z"/>
			<path class="st1" d="M228.5,339.8c-0.8,0-0.6,0.3,0.3,0.7c0.2-0.2,0.3-0.4,0.5-0.6C229,339.8,228.7,339.8,228.5,339.8z"/>
			<path class="st1" d="M208.4,356.6c0.2-2.6,0.1-5.9-0.3-7.9c-1.6-7.7-5.7-12.6-12.9-15.4c-2.6-1-7.6-1.8-8.1-1.3
				c-0.2,0.2-0.2,0.4,0.1,0.4c0.9,0.1,2.8,0.7,4.9,1.7c2.3,1.1,7.3,4.6,8.9,6.3c4.3,4.6,5.9,11.2,4.2,17.7
				C206.2,357.7,207.3,357.2,208.4,356.6z"/>
			<path class="st1" d="M134.2,248.6c0,0.4-0.1,0.7-0.3,0.7c-0.1,0-0.3-0.2-0.3-0.4c-0.1,0.1-0.3,0.3-0.4,0.4c0,0,0,0.1,0,0.1
				c0,0.9,0.8,0.8,2.8-0.2l1.6-0.9l-1.3-0.2c-0.5-0.1-1-0.2-1.4-0.4c-0.2,0.2-0.4,0.4-0.7,0.6C134.2,248.4,134.2,248.5,134.2,248.6z
				"/>
			<path class="st1" d="M140.4,243.9c0,0,0-0.2,0-0.4c-0.5,0.3-0.9,0.7-1.4,1C139.7,244.3,140.2,244,140.4,243.9z"/>
			<path class="st1" d="M152.5,245.5c0.6,0.2,0.9,0.1,1.3-0.3c0.4-0.5,0.2-0.8-1.4-1.6c-1.8-1.1-3.3-2.7-4.2-4.8
				c-0.1,0.1-0.3,0.2-0.4,0.2C148.7,241.8,150.9,244.9,152.5,245.5z"/>
			<path class="st1" d="M153.5,237.7c0.2,0.5,0.8,1.4,1.4,1.9c1.5,1.4,2.2,1.2,0.9-0.2c-0.9-0.9-1.4-2.1-1.4-3.4
				c-0.4,0.1-0.8,0.3-1.1,0.5C153.2,236.9,153.3,237.3,153.5,237.7z"/>
			<path class="st1" d="M149.7,239.2c0.2-0.1,0.1-0.5-0.2-0.9c0,0-0.1-0.1-0.1-0.1c-0.1,0.1-0.3,0.1-0.4,0.2
				C149.2,238.9,149.6,239.3,149.7,239.2z"/>
			<path class="st1" d="M151.9,237.7c1,2.2,1.4,2.3,0.6,0.2c-0.1-0.4-0.2-0.7-0.3-1c-0.2,0.1-0.4,0.2-0.6,0.2
				C151.7,237.3,151.8,237.5,151.9,237.7z"/>
			<path class="st1" d="M152.1,239.8c1.6,1.5,1.7,1.4,0.2-0.4c-0.5-0.6-0.8-1.3-1.1-2.1c-0.3,0.1-0.6,0.3-0.8,0.4
				C150.8,238.5,151.4,239.2,152.1,239.8z"/>
			<path class="st1" d="M151,241.3c0.1,0.2,0.4,0.3,0.6,0.2c0.2-0.1,0.2-0.4,0-0.6C151.1,240.3,150.6,240.7,151,241.3z"/>
			<path class="st1" d="M131.5,252c0.6,0,0.5-0.1-0.4-0.7c-0.1,0.1-0.3,0.3-0.4,0.5C131,251.9,131.3,251.9,131.5,252z"/>
			<path class="st1" d="M152.1,242.1c0.1,0.2,0.4,0.4,0.6,0.4c0.2,0,0.3-0.1,0.3-0.4c0-0.2-0.3-0.4-0.6-0.4
				C152.2,241.7,152,241.9,152.1,242.1z"/>
			<path class="st1" d="M122.8,266c1.1,0,1.3-0.1,1.5-1.4c0.2-0.8,0.2-1.5,0.2-1.6c0-0.1-0.8-0.1-1.7-0.1c-0.3,0-0.5,0-0.8,0
				c-0.6,0.9-1.1,1.8-1.6,2.7C121.4,265.8,122.3,266,122.8,266z"/>
			<path class="st1" d="M130.9,252.9c0-0.1-0.3-0.3-0.8-0.6c-0.1,0.1-0.2,0.2-0.3,0.3C131,253.2,130.9,253.1,130.9,252.9z"/>
			<path class="st1" d="M123.9,267.5c0.1-0.2-0.1-0.4-0.6-0.4s-0.7,0.2-0.6,0.4c0.1,0.2,0.4,0.4,0.6,0.4
				C123.5,267.9,123.8,267.8,123.9,267.5z"/>
			<path class="st1" d="M115.3,280.1c2-1.1,4.7-1.4,7.3-0.6c2.7,0.8,6.1,3.8,6.8,6c0.3,0.8,0.6,1.4,0.8,1.3c0.6-0.4-0.6-3-2.3-4.8
				c-2.1-2.2-4.1-3.4-6.7-3.6c-2.4-0.2-4.7,0.3-6.1,1.6l-0.6,0.5c0,0.1,0,0.1,0,0.2L115.3,280.1z"/>
			<path class="st1" d="M120.3,275.3c0,0.8,0.3,1.6,0.5,1.8c0.2,0.1,0.8,0.3,1.4,0.3h1.1l-0.7-1.9c-0.8-1.9-2.6-4.7-3-4.4
				c-0.1,0.1,0,0.8,0.2,1.4C120,273.3,120.3,274.5,120.3,275.3z"/>
			<path class="st1" d="M117,276.2c-0.3,0.7-0.6,1.4-0.6,1.4c0,0.1,0.7-0.1,1.5-0.3c1.5-0.4,1.5-0.5,1.5-2c0-1.6-0.9-3.8-1.6-4.5
				c-0.2,0.4-0.3,0.7-0.4,1.1C117.7,273.1,117.6,274.8,117,276.2z"/>
			<path class="st1" d="M123.1,269.1c0.5,0,0-0.5-1.3-1.3c-0.7-0.4-1.4-0.8-1.9-1.1c-0.1,0.1-0.1,0.3-0.2,0.4
				c0.3,0.2,0.6,0.5,1.2,0.9C121.7,268.5,122.7,269.1,123.1,269.1z"/>
			<path class="st1" d="M127.1,257c0.9-0.6,1-1.2,0.4-1.7c-0.6,0.7-1.2,1.5-1.8,2.2C126.2,257.5,126.7,257.3,127.1,257z"/>
			<path class="st1" d="M125.7,260.5c0.5-0.7,0.3-1-0.7-1c-0.2,0-0.4,0-0.6-0.1c-0.4,0.6-0.8,1.1-1.2,1.7
				C124.4,261.2,125.4,260.9,125.7,260.5z"/>
			<path class="st1" d="M126,286.2c0-0.8-2.4-2.3-4.1-2.5c-3.1-0.5-6.9,0.4-7.3,1.7c-0.1,0.4,0.2,0.3,1.1-0.1
				c1.8-0.9,6.1-0.6,7.5,0.5C124.3,286.5,126,286.9,126,286.2z"/>
			<path class="st1" d="M213.9,316.2c0.5-0.2,0.6-0.3,0.2-0.3c-0.3,0-0.8,0.1-1.1,0.3C212.3,316.7,212.9,316.7,213.9,316.2z"/>
			<path class="st1" d="M188.9,313.9c-0.1-2.4-0.3-3-1-3.9c-0.5-0.5-1.1-0.9-1.2-0.8c-0.2,0.1,0.1,0.6,0.7,1.1
				c0.9,0.8,1.1,1.1,1.1,3.6c0,1.9-0.2,3.3-0.7,4.6c-0.5,1.3-0.6,1.9-0.2,1.8C188.4,320,189,316.9,188.9,313.9z"/>
			<path class="st1" d="M208,314c0.8-4.8-1.3-10.7-4.5-13.3l-1.7-1.4l1.2,1.3c3.1,3.5,4.7,7.8,4.2,12.1c-0.2,2.3-0.9,4.2-2.3,5.7
				l-0.8,0.8h0.8C206,319.3,207.6,316.5,208,314z"/>
			<path class="st1" d="M205.1,316c-0.2,0.3-0.1,0.3,0.2,0c0.6-0.5,1.5-4,1.2-4.5c-0.1-0.2-0.5,0.6-0.7,1.8
				C205.6,314.5,205.3,315.7,205.1,316z"/>
			<path class="st1" d="M188.2,323.8c0.5-0.3,0.5-0.4,0-0.8c-1.1-0.7-4.5-1.5-6.3-1.5c-1.9,0-5,1.1-4.5,1.6c0.2,0.2,1.3,0.1,2.6-0.1
				c2.2-0.4,5.4,0,6.7,0.8C187.4,324.3,187.5,324.3,188.2,323.8z"/>
			<path class="st1" d="M206.4,308.7c0.1-0.3,0.1-0.7,0-1c-0.1-0.3-0.2-0.1-0.2,0.5C206.2,308.8,206.3,309,206.4,308.7z"/>
			<path class="st1" d="M208.5,304.4c-0.5-0.5-1.3,0-1,0.5c0.1,0.2,0.5,0.2,0.8,0.1C208.6,304.8,208.7,304.6,208.5,304.4z"/>
			<path class="st1" d="M174.3,329.3c0.1-1.3,0-3-0.3-4c-0.5-1.8-2.2-3.8-3.2-3.8c-0.4,0-0.2,0.3,0.5,1.1c2.3,2.3,2.5,7.4,0.6,12.4
				c-0.1,0.3-0.1,0.6,0.1,0.6C172.7,335.6,174.2,331.7,174.3,329.3z"/>
			<path class="st1" d="M172.2,343c0-0.1-0.1-0.3-0.4-0.4c-0.2-0.1-0.4,0-0.4,0.1c0,0.2,0.2,0.4,0.4,0.4
				C172,343.2,172.2,343.1,172.2,343z"/>
			<path class="st1" d="M178.3,340.4c2.8-2,4.2-5.6,3.6-8.8c-0.3-1.4-1.6-4.3-1.9-4.3c-0.1,0,0,0.3,0.2,0.8c0.7,1.2,0.9,6,0.4,7.8
				c-0.3,1.1-1.1,2.2-2.4,3.5C176.2,341.5,176.2,341.9,178.3,340.4z"/>
			<path class="st1" d="M183.6,324.8c0.2-0.1,0.4-0.4,0.4-0.6c0-0.2-0.1-0.3-0.4-0.1c-0.2,0.1-0.4,0.4-0.4,0.6
				C183.2,324.8,183.4,324.9,183.6,324.8z"/>
			<path class="st1" d="M185.5,324.6c0-0.2-0.1-0.4-0.4-0.4c-0.2,0-0.4,0.2-0.4,0.4c0,0.2,0.2,0.4,0.4,0.4
				C185.4,325,185.5,324.8,185.5,324.6z"/>
			<path class="st1" d="M221.1,299.7c0,0.2,0.1,0.1,0.3-0.2s0.3-0.8,0.3-1.1C221.7,297.7,221.1,299,221.1,299.7z"/>
			<path class="st1" d="M210.3,319.6c0.4-0.5,0.5-0.5,0.8,0c0.3,0.5,0.4,0.5,0.9,0c0.6-0.6,0.5-0.6-0.6-0.6c-0.8,0-1.3,0.3-1.4,0.6
				C209.9,320.1,209.9,320.1,210.3,319.6z"/>
			<path class="st1" d="M209.6,306.4c0-0.5-0.7-0.9-1.1-0.6c-0.2,0.1-0.3,0.4-0.2,0.6C208.5,306.8,209.6,306.8,209.6,306.4z"/>
			<path class="st1" d="M214.1,307.5c2.1-1.1,1.9-1.7-0.2-0.7c-0.9,0.5-1.7,1-1.7,1.1C212.2,308.4,212.5,308.3,214.1,307.5z"/>
			<path class="st1" d="M211.3,317.7c0.1,0.2,0.3,0.4,0.4,0.4c0.1,0,0.1-0.1,0.1-0.4c0-0.2-0.2-0.4-0.4-0.4
				C211.2,317.4,211.2,317.5,211.3,317.7z"/>
			<path class="st1" d="M209.8,307.6c-0.1-0.1-0.5-0.1-0.7,0c-0.3,0.1-0.2,0.2,0.2,0.2C209.8,307.9,210,307.7,209.8,307.6z"/>
			<path class="st1" d="M212.3,302.8c2.4-0.2,2.6,0.3,0.3,0.7c-1.7,0.3-1.8,0.6-0.6,1.4c1.2,0.9,2.5,0.8,4.4-0.4
				c2.8-1.8,5.1-6.5,5.1-10.5c0-6-3.6-9.6-9.3-9.2c-4.2,0.3-9.4,3.7-11.3,7.3c-0.8,1.5-0.8,1.8-0.3,2.1c1,0.6,1.4,0.4,1.7-0.9
				c0.2-0.7,0.8-1.9,1.6-2.7c5.4-5.5,15.4-4.1,16,2.2c0.3,2.9-2.6,6.4-5.3,6.4c-1.7,0-3.7-2.2-3.7-4c0-1.9,0.5-2.7,2-3.2
				c1.1-0.4,1.4-0.3,2.2,0.3c1.1,0.9,1.5,2.6,0.5,3c-0.4,0.1-0.9-0.1-1.3-0.7c-0.6-0.8-0.8-0.8-1.1-0.3c-0.5,0.8-0.5,1.2,0.1,2
				c0.8,1.1,2.3,0.8,3.6-0.7c1.5-1.7,1.5-3.2,0.2-4.8c-2.1-2.4-6.1-3-9.5-1.4c-2.3,1.1-3.5,2.3-4.2,4.3l-0.5,1.5l2.2,2
				c1.2,1.1,2.9,2.9,3.7,3.9l1.5,2L212.3,302.8z M217.4,300.4c2.4-2.4,2.9-1.8,0.5,0.8c-1.4,1.5-2.6,2.2-2.6,1.5
				C215.3,302.6,216.2,301.6,217.4,300.4z"/>
			<path class="st1" d="M220.1,302c0.6-1.1,0.5-1.1-0.4,0.2c-0.6,0.7-1.6,1.9-2.3,2.6c-0.7,0.6-1.1,1.2-0.9,1.2
				C216.9,306,219.5,303.2,220.1,302z"/>
			<path class="st1" d="M212.6,309.3c0,0.3,2.8-0.1,4.6-0.6c0.7-0.2,2-1,2.8-1.6c1.3-1.1,1.4-1.4,1.6-3.7c0.2-2,0.1-2.4-0.3-1.7
				c-1.5,2.3-4.7,5.4-6.9,6.5C213.4,308.6,212.6,309.1,212.6,309.3z M215.1,308.6c-0.1,0.2-0.4,0.4-0.6,0.4c-0.5,0-0.4-0.3,0.3-0.5
				C215.1,308.3,215.2,308.4,215.1,308.6z"/>
			<path class="st1" d="M187.1,250.2c0.5-0.1,0.7-0.3,0.4-0.4c-0.3-0.1-0.7,0-0.9,0.2C186.3,250.3,186.4,250.3,187.1,250.2z"/>
			<path class="st1" d="M201.9,264.1c-0.2,0-0.4,0.3-0.4,0.6c0,0.3,0.2,0.5,0.4,0.3c0.2-0.1,0.4-0.4,0.4-0.6
				C202.3,264.3,202.2,264.1,201.9,264.1z"/>
			<path class="st1" d="M203.8,267.7c-0.3,0-0.6,0.3-0.7,0.7c-0.1,0.5,0,0.7,0.6,0.6C204.5,268.8,204.7,267.7,203.8,267.7z"/>
			<path class="st1" d="M202.7,265.6c-0.5,0-0.8,0.8-0.6,1.4c0.2,0.5,0.3,0.5,0.8,0.1C203.4,266.8,203.3,265.6,202.7,265.6z"/>
			<path class="st1" d="M200.2,256.9c-0.1-0.2-0.5-0.4-0.7-0.4c-0.3,0-0.2,0.1,0.1,0.4C200.4,257.4,200.5,257.4,200.2,256.9z"/>
			<path class="st1" d="M205.6,269.2c-0.7-0.3-1.5,0.3-1.2,1c0.4,0.6,0.8,0.5,1.4-0.1C206.1,269.6,206.1,269.4,205.6,269.2z"/>
			<path class="st1" d="M191.1,290c-0.1,0.1-0.4,0.8-0.6,1.5c-0.2,0.8-0.2,1.1,0,0.9C190.9,292,191.5,289.7,191.1,290z"/>
			<path class="st1" d="M186.6,319.1c0.7-1.6,1.3-5.3,1.1-6.5c-0.3-1.6-1.3-2.5-1.8-1.7c-0.2,0.3-0.1,0.8,0.2,1.3
				c0.8,1.2,0.8,4.3,0.1,5.7c-0.4,0.7-0.6,1.4-0.6,1.6C185.5,320.3,186.2,320,186.6,319.1z"/>
			<path class="st1" d="M171.2,349.2c0.9-2.3,1.2-5.6,0.5-5.6c-0.3,0-0.6,0.5-0.6,1.1c0,0.6-0.4,2-0.8,3.3c-0.4,1.2-0.6,2.3-0.5,2.5
				C170.1,351.1,170.6,350.8,171.2,349.2z"/>
			<path class="st1" d="M191.3,254c0.4-0.1,0.8-0.3,0.8-0.5c0-0.1-0.3-0.3-0.8-0.2c-0.4,0-0.8,0.3-0.8,0.5
				C190.5,254,190.8,254.1,191.3,254z"/>
			<path class="st1" d="M196.7,278.9c0.2-0.1-0.5-1.1-1.4-2.1c-3-3-4.4-6.6-4.8-12.5c-0.2-3.4-0.2-3.4-0.9-2.4
				c-0.4,0.5-0.9,2.1-1.3,3.5c-0.5,2.2-0.6,2.9-0.1,4.9c0.6,3,2,5.5,4.4,7.8c2.3,2.3,1.7,2.5-0.7,0.3c-3.1-2.9-5.5-7.9-5.5-11.6
				c0-1.9,0.9-5.1,2-6.9c0.8-1.3,0.8-1.4,0.1-1c-1.7,1-5,5.1-6.1,7.6c-2.1,4.8,0.1,12.6,5.1,17.6c1.1,1.2,2.3,2.1,2.4,2
				c0.1-0.1-0.7-1.2-2-2.5c-2.4-2.4-4.6-6.1-4.5-7.9c0-0.9,0-0.9,0.3-0.2c0.1,0.4,0.6,1.6,0.9,2.5c1.1,3.1,5.6,8,6.1,6.6
				c0.2-0.3-0.3-1.1-1.1-2.1c-0.8-0.8-1.4-1.6-1.4-1.8c0-0.1,0.7,0.5,1.5,1.4l1.5,1.7l2.6-2.4C195.2,280.3,196.6,279.1,196.7,278.9z
				 M183.8,267.3c-0.5,1.3-0.6,2.3-0.4,3.8c0.2,1.7,0.1,2.1-0.3,2.1c-1.2,0-0.9-4.5,0.5-7.2C184.4,264.6,184.5,265.5,183.8,267.3z"
				/>
			<path class="st1" d="M162.7,321.8c3.6,1,5.9,3.8,6,7.3c0.1,1,0.1,1.9,0.3,2.2c0.5,1.6,1.3-1.1,1.1-4c-0.2-3.3-4-6.6-7.6-6.6
				C160.6,320.8,160.7,321.3,162.7,321.8z"/>
			<path class="st1" d="M163.9,325.8c-0.6-0.4-1.3-1-1.5-1.2c-0.3-0.2-0.7-0.4-1.1-0.4c-0.4,0,0.5,0.8,1.8,1.9
				c1.3,1,2.4,1.9,2.5,1.9C166.1,328.1,164.7,326.4,163.9,325.8z"/>
			<path class="st1" d="M159,322.4l1.8,0.5c1,0.3,2.4,0.8,3.1,1.3c1.4,0.9,3.4,3.2,3.4,4c0,0.3,0.1,0.3,0.2,0
				c0.2-0.5-0.8-2.7-1.9-3.8c-1.2-1.4-2.7-2-4.7-1.9L159,322.4z"/>
			<path class="st1" d="M165.8,335.3c1.4,2.2,3.3,7.1,3.3,8.7c0,0.8,0,0.8,0.5,0.1c0.6-1.1,0-5.1-1.2-7.8c-1.4-3-6.2-8.1-7.6-8.1
				c-0.8,0-0.6,0.3,1.4,2.4C163.4,332.1,165.1,334.1,165.8,335.3z"/>
			<path class="st1" d="M155.6,280.6c-0.1-0.1-0.5-0.1-0.7,0c-0.3,0.1-0.2,0.2,0.2,0.2C155.6,280.9,155.8,280.7,155.6,280.6z"/>
			<path class="st1" d="M153.7,274l0.9,0.8c0.5,0.4,1.6,0.9,2.3,1.1c1.7,0.5,4.5,0.3,5.9-0.5c0.6-0.3,1.3-0.6,1.5-0.6
				c0.7,0,1.8-1.1,1.5-1.5c-0.2-0.3-0.5-0.3-0.9,0.1c-1.6,1.3-6.9,1.9-10,1L153.7,274z"/>
			<path class="st1" d="M168.8,254.8c-5.9-2.5-10.6-2.1-14,1c-2.1,1.9-2.6,3.5-2.6,7.2c0,6.8,4.5,10.9,8.2,7.4
				c1.1-1,2.3-4.1,2.3-5.8c0-1.3-1-3.1-1.8-3.2c-1.4-0.1-2.2,0.1-2.9,0.8c-0.8,0.8-0.6,2.1,0.4,1.8c0.7-0.3,1.7,0.4,1.7,1.1
				c0,0.3-0.3,0.9-0.7,1.3c-0.9,1.1-2.1,0.8-3.2-0.9c-0.7-1.2-1-3.5-0.4-4.3c0.6-1,3-2,4.5-2c2.9,0,4.4,1.9,4.4,5.6
				c0.1,4.3-2.6,8.2-5.8,8.7c-1.3,0.2-1.5,0.3-0.9,0.6c1.6,0.6,4.9-0.4,6.7-2c1.2-1.1,1.4-1.5,1.4-3.2c0.1-2.9,1-6.8,2.1-9.2
				c0.5-1.1,0.9-2.2,0.9-2.2c0-0.1-0.6-0.5-1.2-0.9c-1.1-0.6-1.1-0.8-0.5-0.8c0.5,0,1,0.3,1.3,0.6c0.4,0.5,0.6,0.5,1,0.1
				C170.6,255.8,170.4,255.4,168.8,254.8z M155.6,257c-0.5,0.6-1,1.3-1,1.6c0,0.3-0.1,0.6-0.4,0.6c-0.7,0-0.4-1.1,0.7-2.4
				c0.6-0.7,1.2-1.1,1.4-1C156.4,255.9,156.1,256.5,155.6,257z M162.2,255c-0.9,0-2.4,0.1-3.1,0.3c-1.9,0.3-1.9-0.1,0-0.6
				c0.9-0.3,2.1-0.3,3.1-0.1l1.7,0.3L162.2,255z"/>
			<path class="st1" d="M154.9,276.8c0.1-0.1,0-0.3-0.4-0.5c-0.3-0.2-0.6-0.3-0.7-0.1c-0.1,0.1,0,0.3,0.4,0.5
				C154.5,276.9,154.9,276.9,154.9,276.8z"/>
			<path class="st1" d="M213.9,314.8c-0.3-0.1-0.8-0.1-1.1,0c-0.4,0.1-0.1,0.2,0.5,0.2C213.8,315,214.1,314.9,213.9,314.8z"/>
			<path class="st1" d="M209.3,271.4c-0.5,0-0.9,0.2-0.9,0.4c0,0.2,0.5,0.4,1.2,0.4s1.1-0.1,0.9-0.4
				C210.4,271.5,209.9,271.4,209.3,271.4z"/>
			<path class="st1" d="M145.1,315.7c0-1.8-1.3-4.8-2-4.8c-0.6,0-0.5,0.8,0.4,2.6c0.4,0.9,0.8,2.2,1,3
				C144.9,318.2,145.2,317.8,145.1,315.7z"/>
			<path class="st1" d="M141.1,315c0.4,0.3,0.9,0.6,1.1,0.9c0.3,0.2,0.6,0.4,0.9,0.4c0.2,0,0.4,0.2,0.4,0.5c0,0.3,0.1,0.3,0.2,0
				c0.2-0.5-1-4.3-1.4-4.3c-0.1,0-0.6,0.5-1.1,1C140.5,314.4,140.4,314.5,141.1,315z"/>
			<path class="st1" d="M145.8,305.4c0.6,0.3,1.8,1.3,2.6,2.3c1.6,2,1.9,2.2,1,0.7c-0.9-1.6-3.6-4.3-4.2-4.3
				C144.3,304,144.6,304.8,145.8,305.4z"/>
			<path class="st1" d="M145.7,313c0.2-0.2-1.3-3.2-1.8-3.5c-0.6-0.3-0.5-0.1,0.6,1.9C145.1,312.4,145.6,313.1,145.7,313z"/>
			<path class="st1" d="M131.2,290.3c-0.2,0.5-0.2,0.6,0.2,0.2c0.3-0.3,0.4-0.6,0.3-0.7C131.5,289.7,131.3,289.9,131.2,290.3z"/>
			<path class="st1" d="M148.9,310c0-0.6-2.6-3.9-3.3-4.2c-1.1-0.4-1,0.1,0.2,1.5c0.7,0.7,1.5,1.9,1.8,2.5
				C148.1,310.9,148.9,311,148.9,310z"/>
			<path class="st1" d="M131.1,266.4c-0.5,5.7,3.3,12.1,8.7,14.6c2.8,1.3,3,1.2,3-0.6c0-1.4-0.1-1.6-1.4-2.2c-2-1-4.5-3.6-5.5-5.7
				c-1.3-2.6-1.2-6.4,0.3-9.4c1.5-3,5.4-6.8,8.8-8.6c1.4-0.7,3.1-1.8,3.6-2.2l1-0.9l-1.9,0.3C138.7,252.9,131.7,259.2,131.1,266.4z"
				/>
			<path class="st1" d="M134.3,288.5c1.4,0.7,3.2,1.8,4,2.4c0.7,0.6,1.3,1,1.3,1.1c0.3,0.1,3.6-2.1,4.3-2.8l0.9-0.9l-2.7-0.5
				c-3.1-0.5-5.9-1.5-8.6-3.1c-2.2-1.3-2.7-1.1-2.2,1C131.5,287,131.8,287.2,134.3,288.5z"/>
			<path class="st1" d="M136.7,253.6c0-0.3-3.1,2.5-3.9,3.6c-0.5,0.6,0.2,0.1,1.5-1.2C135.6,254.7,136.7,253.6,136.7,253.6z"/>
			<path class="st1" d="M140.4,245.9c-0.4,0.2-1.5,0.5-2.4,0.7c-1.4,0.3-1.4,0.3,0.8,0.2c2.6-0.1,3-0.3,2.6-0.9
				C141.3,245.6,141,245.6,140.4,245.9z"/>
			<path class="st1" d="M171,354.5c0.5,0,0.7-0.1,0.5-0.2c-0.3-0.1-0.7-0.1-0.9,0C170.3,354.5,170.5,354.5,171,354.5z"/>
			<path class="st1" d="M174.1,351.4c0-0.8-0.7-1.2-1.3-0.6c-0.3,0.3-0.3,0.6,0.1,1.3c0.4,0.7,0.4,0.8-0.1,0.6
				c-0.6-0.2-1.6,0.6-1.1,1C172.4,354.3,174.1,352.8,174.1,351.4z"/>
			<path class="st1" d="M149.7,313.5c0.6,0,0.6-0.1,0.3-1.1c-0.6-1.7-1.7-1.4-1.2,0.3C148.9,313.2,149.3,313.5,149.7,313.5z"/>
			<path class="st1" d="M174.5,349.5c0-0.3-0.1-0.6-0.4-0.6c-0.2,0-0.4,0.3-0.4,0.6c0,0.3,0.2,0.6,0.4,0.6
				C174.3,350,174.5,349.8,174.5,349.5z"/>
			<path class="st1" d="M170,352.7c2.1-2.4,1.8-2.5-1-0.2c-0.8,0.6-1.4,1.3-1.4,1.5C167.6,354.7,168.8,354.1,170,352.7z"/>
			<path class="st1" d="M149.6,246.8c-0.3,0.3-0.3,0.6-0.1,0.6c0.5,0,1-0.7,0.7-1C150.2,246.3,149.9,246.5,149.6,246.8z"/>
			<path class="st1" d="M149.8,314.7c-0.3,0-0.6,0.3-0.6,0.6c0,0.3,0.3,0.6,0.6,0.6c0.3,0,0.6-0.3,0.6-0.6S150.1,314.7,149.8,314.7z
				"/>
			<path class="st1" d="M149.3,317c0,0.2,0.3,0.4,0.6,0.4c0.3,0,0.6-0.1,0.6-0.4c0-0.2-0.3-0.4-0.6-0.4
				C149.5,316.6,149.3,316.8,149.3,317z"/>
			<path class="st1" d="M158,320.2c2-0.6,2.7-1.3,1.2-1.3c-0.8,0-3.8,1.4-3.8,1.7C155.4,320.9,155.9,320.8,158,320.2z"/>
			<path class="st1" d="M167.6,348c0.2-0.1,0.4-0.4,0.4-0.6c0-0.2-0.1-0.3-0.4-0.1c-0.2,0.1-0.4,0.4-0.4,0.6
				C167.2,348,167.4,348.1,167.6,348z"/>
			<path class="st1" d="M178,239.1c3.4,1.4,6.3,3.3,8.6,5.5c2.5,2.3,2.8,2.5,1.3,0.8c-2.6-3-7.7-6.2-11-6.9
				C176.3,238.3,176.8,238.6,178,239.1z"/>
			<path class="st1" d="M225.6,306.4c0-0.6-0.7-1.2-1.6-1.2c-0.4,0-0.5,1.3-0.1,1.6C224.5,307.4,225.6,307.1,225.6,306.4z"/>
			<path class="st1" d="M224,304.5c1.1,0.9,1.2,0.9,1.2,0c0-0.4-0.4-0.9-0.8-1C223.2,303.1,223,303.6,224,304.5z"/>
			<path class="st1" d="M201.6,281.8c0-0.1-0.3,0-0.8,0.2s-0.8,0.5-0.8,0.6c0,0.1,0.3,0,0.8-0.2
				C201.2,282.1,201.6,281.9,201.6,281.8z"/>
			<path class="st1" d="M225.1,300.6c0,0,0.1-0.2,0.1-0.5s-0.3-0.6-0.6-0.6c-0.7,0-0.8,0.6-0.1,0.9
				C224.8,300.5,225.1,300.6,225.1,300.6z"/>
			<path class="st1" d="M182.8,300c-0.4,5.6-1.8,9.9-5.2,16l-0.9,1.5l1.2-1.3c0.6-0.7,2-2.9,2.9-4.8c2.5-4.9,3.3-9.5,2.5-13.6
				C183,296.5,183,296.9,182.8,300z"/>
			<path class="st1" d="M213.3,318.1c0.5,0,0.8-0.1,0.8-0.4c0-0.2-0.2-0.4-0.5-0.4c-0.3,0-0.7,0.2-0.8,0.4
				C212.7,318,212.9,318.1,213.3,318.1z"/>
			<path class="st1" d="M216.6,320.9c1.7-1.1,2.2-5.1,0.8-6.2c-0.7-0.6-1.5,0.1-1.2,1c0.4,1.1-1,4-2.3,4.8c-0.5,0.4-1,0.8-1,1
				C213,322.1,215.5,321.6,216.6,320.9z"/>
			<path class="st1" d="M223.8,301.8c0,1.3,0.9,1.6,1.3,0.3c0.2-0.5,0.1-1-0.2-1.1C223.9,300.4,223.7,300.6,223.8,301.8z"/>
			<path class="st1" d="M184.6,358.7c0.6,0.5,1.3,0.9,1.5,0.9c0.7,0,1.9-3.8,2-6.3c0.1-2.6-0.9-5.9-2.3-7.6l-0.8-1.1l0.3,2.4
				c0.3,2.5-0.3,6.8-1.2,9.4C183.6,357.8,183.6,357.8,184.6,358.7z"/>
			<path class="st1" d="M221.8,307.3c-0.1-0.1-1.1,0.5-2.1,1.3s-2.1,1.6-2.5,1.7c-0.4,0.1-0.8,0.4-0.8,0.6s-0.3,0.3-0.6,0.3
				c-1.5,0-2.8,0.3-2.8,0.5c0,0.1,0,0.5,0,0.7c0,1.2,6.8-0.8,8.8-2.5C222.4,309.4,222.4,307.7,221.8,307.3z"/>
			<path class="st1" d="M205.4,249.5c-0.5,0.3-1.6,3.8-1.8,5.9c-0.1,1.3,0,1.9,0.2,1.7s0.4-0.5,0.3-0.7c-0.1-0.8,0.5-4,1-5.6
				C205.5,249.9,205.6,249.4,205.4,249.5z"/>
			<path class="st1" d="M200.4,239.5c-0.5,1.4-0.5,5,0,6.9c0.2,0.8,0.8,2.2,1.4,3c0.5,0.8,1,1.4,1.1,1.3c0.1-0.1-0.3-1.3-0.8-2.8
				c-1.6-4.3-1.2-8.7,0.9-10.8c0.5-0.5,0.6-0.8,0.3-0.8C202.7,236.4,200.9,238.2,200.4,239.5z"/>
			<path class="st1" d="M196.2,238.1c-2.3-1.3-5.6-1-9.1,0.6c-1.3,0.6-1.5,0.9-1.2,1.3s0.7,0.4,2-0.3c1.3-0.6,2.3-0.8,5.2-0.9
				C197.6,238.7,197.4,238.7,196.2,238.1z"/>
			<path class="st1" d="M184.6,236.6c0.1-0.1,0-0.6-0.2-1c-0.6-1.1-0.9-2.5-1-4c-0.3,0-0.5,0-0.8-0.1c0.1,1.2,0.4,2.3,0.9,3.4
				C184,236,184.5,236.8,184.6,236.6z"/>
			<path class="st1" d="M207.9,262.3c0.1,0.4,0.3,0.6,0.5,0.5c0.1-0.1,0-0.4-0.3-0.7C207.7,261.8,207.7,261.8,207.9,262.3z"/>
			<path class="st1" d="M214.5,242.6c-0.5-0.5-2.8,1.2-4.5,3.3c-3.3,3.9-4.7,7.9-4.3,12c0.2,2,0.6,1.6,1-1c0.6-4.1,2.8-8.4,5.8-11.8
				C213.7,243.9,214.6,242.7,214.5,242.6z"/>
			<path class="st1" d="M207.8,268c-0.6-0.3-1.4-0.8-1.8-1.2c-0.3-0.3-0.8-0.5-0.8-0.4c-0.1,0.1,0.3,0.6,0.9,1.2c0.6,0.5,1.6,1,2,1
				C208.9,268.6,208.8,268.6,207.8,268z"/>
			<path class="st1" d="M203.8,259.2c0.2,0,0.3-0.3,0.3-0.8s-0.2-0.8-0.3-0.8s-0.3,0.3-0.3,0.8C203.5,258.8,203.6,259.2,203.8,259.2
				z"/>
			<path class="st1" d="M203.9,259.6c-0.7,0-0.4,2,0.7,4.4c0.5,1.1,1,1.7,1.3,1.6c0.6-0.2,0.6,0-0.5-3.4
				C204.8,260.7,204.2,259.6,203.9,259.6z"/>
		</g>
		<path class="st0" d="M223.8,276.5c-1.9-0.7-2-1.1-2-2.2c0-1.6,3.8-16.8,9.5-28.5c1.3-2.6-1.1-5-6.4-9.1
			c-7.6-5.9-22.1-11.5-39.9-11.9c-12.8-0.3-23.6,3.1-23.5,6.4c0.6,12.5-2.2,34.6-4.5,42.9c-0.7,2.5-2.9,0.2-9.8-1
			c-6.9-1.2-10,0.3-10.6,1.6s-0.4,3.3,3.3,7.2c3.4,3.6,9.6,5.7,11.7,6.2c1.6,0.4,1.4,1.7,1.2,2.6c-0.3,0.9-1.6,3.5-2,5.8
			c-0.2,1.4,1.1,2.3,1.9,3.4c0.8,1-1.6,0.7-1.4,1.4c0.2,0.6,2,0.3,2.1,0.7c0.2,2.8-1.8,5.6-2.2,8.5c-0.8,5.6-0.1,5.7-0.1,11
			c0,0-0.3,1.7-13.2,0.6c0,0.8,10.8,2.5,12.3,2.6c0.5,0,5-0.3,5.4,0.1c0.9,0.9,0.6,1.2-0.3,2.1c-0.8,0.7-1.6,1.3-2.4,1.8
			c-2.8,1.5-1.2,1.1-1.2,1.8c0,0.7,1.5,1.3,1,1.7c0,0.3-0.1,0.6-0.1,0.9c0.5,0.3,0.5,0.8,0.5,2c0,1.6-1.6,5.7,0.6,10.3
			c2.1,4.6,9.7,4,11.4,3.8c1.3-0.2,1.3-0.2,2.5,2.2c0.5,0.9,0.4,1.4,0.1,1.8c-1.3,1.2-6,6.3-8,9.3c-2,3,0.6,2.7,1.4,2.7
			c0.8,0,1.6-0.4,0.8,1.4c-1.7,3.8-1.2,8.1,0.2,8.6c1.2,0.4,3.1-1.6,3.5-2.2c0.3-0.5,0.9-1.2,1.5-0.3c0.8,1.3,1.7,1.5,2.1,1.5
			c2.2,0.1,2.2-2.1,3.1-0.9c2.9,4,8.5,5.9,11,5.2s3.8-8.3,3.9-9.6c0.1-0.6,3.6-4.1,14.4-7.4c11.3-3.4,14.3-4.9,17.5-8.2
			c1.5-1.6,0.8-3.4,0.7-3.9c-0.2-0.5-2-5.5-2.5-6.9c-0.5-1.4-0.9-2-2.6-2c-1.7,0-2.2-2.6-2.8-4.7c-0.6-2-0.4-1.8,2.6-2.6
			c4.6-1.2,5.9-4,6.3-5.2c0.5-1.2-0.3-1.3-1.2-1.2c-1,0.1-1.7-0.6-0.4-2.2c1.1-1.4,2.5-2.9,3.2-4.6c0.2-0.5,0.9-2.4-0.9-1.9
			c-2.4,0.8-4.1-1.9-0.9-5.8c2.9-3.6,2.4-10.4,2.4-11.9s0.7-1.3,4.8-1.2c4.1,0.1,11.7-1.1,12.2-8.4
			C240.3,283.4,228.8,278.3,223.8,276.5z"/>
		<path class="st0" d="M155.5,302.5c0.3-0.9,1-0.8,1.4-0.5c0.5,0.4,0.9,0.6,0,1.4S155.1,303.8,155.5,302.5z"/>
		<path class="st1" d="M169.9,359.7c-0.3,0.1-3.8,1.4-5.9,2.2c-2.1,0.9-1.4-0.5-1-1c0.4-0.5,4.2-4.6,4.9-5.3c0.7-0.7,1.4-0.7,1.6,0
			c0.3,0.7,0.6,1.7,0.9,2.7C170.9,359.6,170.1,359.5,169.9,359.7z M182.1,358.5c-0.2,0.9-0.9,6-1,7.2c-0.2,1.6-1.3,1.4-2,0.7
			c-0.7-0.7-4.5-4.4-4.8-4.8c-0.7-0.7-0.6-1.4,0.3-2c0.6-0.4,4.1-2.3,6.4-3.4c1.6-0.8,1.7-2.1,2.1-3.4c0.6-1.9,1.9-4.9,4.7-7.2
			c2.1-1.7,7.5-4.3,10.6-6.5c2.6-1.9,3.1-5.6,4.2-9.6c0.5-1.7,1.5-2,2.2-1.8c0.7,0.2,0.6,1.6,1.6,2.7c1,1.1,1.9,1.4,2.1,2.5
			c0.2,1.1,0.5,5.3,1,7.6c0.3,1.1-0.4,1.7-0.7,2c-0.3,0.3-5.2,4.4-10.5,7.2c-4.1,2.2-11.1,5.2-13.6,6
			C182.1,356.6,182.3,357.6,182.1,358.5z M214.7,308.1c-0.6,10.1-5.5,13.5-6.6,14.2c-1.1,0.8-4.1,3.5-5.7,2.3
			c-1.6-1.2-1.6,1.1-3.1,5.4c-1.5,4.3-5.1,6.7-9.7,9.1c-4.6,2.4-5.4,2-15,4.8c-9.6,2.8-14.4,1.9-16.7,0.4c-2.4-1.5-3.2-4.3-3.3-6.1
			s0.7-3.9,2.6-4c1.9-0.1,3.2,1.4,4.4,1.5c1.2,0.1,2.1-0.6,2.3-1.7c0.2-1.1-1.1-2.5-4-2.4c-2.9,0.1-4.3-1.5-4.3-2c0-0.5,0-2,3.6-1.9
			c3.5,0.1,6.8,1.8,9.4,3.6s5.4,3.2,10.1,1.7c4.7-1.5,5.9-7.7,5.4-10.3c-0.3-1.9-1.3-1.8-2.6,1c-0.8,1.6-1.8,2.9-3.6,3
			c-2,0.2-3.9-1.9-5.3-4.7c-1.4-2.8-5.4-4.6-6.8-4.3c-1.2,0.3-1.4,0.6-2.6,0.4s-1.2-1-2.4-1.1c-1.1-0.2-1.9,0.1-2.9,0.6
			c-1,0.5-2.4,0-3.2-0.4s-1.4-1.1-1.3-2.4s2.4-5.3,3.8-8.1c1.4-2.9,1.9-4.3,1.8-5.8s-1.4-3.8-2.6-4.3s-1.3-0.3-1.7-1.4
			c-0.4-1.1,0.3-2.4,0.9-3.3c0.8,0.1,1.1,0.3,6.1,0.2c5-0.1,15.7-2.6,21.6-2.5c5.9,0.1,7.3,1.1,7.4,1.8c0.1,0.7-0.3,1.3-0.4,3.8
			c-0.2,3,2.5,7.8,2.8,12.9c0.3,5-1.1,9.8-1.5,12.8c1,0,6-0.7,6.7-0.9c0.7-0.1,2.1-0.2,2-2.9c-0.1-2.6,0.2-8,1.2-10.8
			c1.3-3.2,4.5-5.7,7.9-5.5C210.9,300.6,215.1,301.7,214.7,308.1z M230.9,285.7c-4-2-13-7.3-31.2-7.3c-15.4,0-24.4,6.6-42.6,6.6
			c-10.7,0-14.8-3.9-16.1-6.2c-1.3-2.2,1.2-2.1,2-1.5c0.8,0.7,4.7,5.7,18.6,5.5c18.8-0.2,28.6-7,43-6.7c16.1,0.3,24.1,6.4,26.4,8.1
			C232.1,285.1,232.6,286.6,230.9,285.7z M176.1,292.9c-3.2,0.3-5.7,2.1-7.4,2.5c-1.7,0.4-3.2,0.9-4.4,1.2s-2.1,1.7-0.9,2.8
			c1.2,1.1,2.9,2,2.7,3.1c-0.2,1.1,0,1.6,0.9,1.1c0.9-0.5,1.9-1.1,2.5-0.5c0.6,0.5,0.2,1.2-0.3,1.5c-0.6,0.4-1,1-0.1,1.6
			c0.9,0.6,2.4,1.4,4.2,1.1c1.8-0.2,3.8-0.6,4.2-0.8c0.3-0.3,0.9-0.7-0.5-0.9c-1.5-0.1-2.3-0.7-3.5-0.7c-1.2,0-0.9-0.4-0.4-0.7
			c0.5-0.3,0.9-1.1,0.9-1.3s0.3-0.7,1.1-0.3c0.8,0.4,0.9,0.8,0.6,1.3c-0.2,0.5,0,0.5,0.8,0.5c0.9,0,2.3,0,2.6-0.4
			c0.4-0.3,0.8-0.4-0.3-0.9c-1.1-0.5-2.3-1.8-3.2-2.2c-0.9-0.3-1.6-0.7-2.4-0.7c-0.7,0-0.6-0.5,0.4-0.8c1.1-0.3,1.9-0.3,3.3,0.6
			c1.4,0.9,3.2,1.4,4.4,0.7c1.2-0.6,0.9-0.5-0.2-0.9c-1.1-0.4-3.3-2-4.8-2.4c-1.5-0.4-2.6-0.4-3.1-0.4c-0.5,0-1.1-0.4,0-0.8
			c1.2-0.4,1.8-1.6,5.1-0.6c3.3,1.1,4.1,1.7,4.8,1.9c0.7,0.3,1.7,0.3,0.5-0.9C182.7,296,179.3,292.6,176.1,292.9z M208.9,303.1
			c-2.3,0-4.2,2.1-4.8,5.1c-0.6,3-0.3,5.3,0.2,5.9c0.6,0.8,1.9,1,2,1.7c0.2,1-1.6,1.8-2.1,2.1c-0.7,0.4-0.7,2.3,1.4,1.5
			s4.1-2.8,4.7-4.3c0.7-1.5,0.7-3.3-1.1-3.2c-1.4,0.1-2.2,0.3-2.4-0.2c-0.3-0.8,0.2-1.8,1.3-2c1.1-0.1,1.7,0,1.9-0.6
			c0.2-0.6-0.3-1-1.4-1.6c-0.7-0.3-1.3-0.2-1.4-1c-0.1-0.8,1.3-1.5,2.3-0.9c1.2,0.8,0.9,1.4,2.1,1.6c0.8,0.2,1.4-0.5,0.8-1.9
			C212,304.7,210.9,303.1,208.9,303.1z"/>
		<g>
			<path class="st1" d="M225.2,351.9c-0.3,0-0.6-0.1-0.8-0.4c-0.4-0.4-0.3-1.1,0.1-1.5c15.1-13.3,23.7-32.4,23.7-52.4
				c0-17.6-6.6-34.4-18.5-47.4c-0.4-0.4-0.4-1.1,0.1-1.5s1.1-0.4,1.5,0.1c12.3,13.3,19.1,30.7,19.1,48.8c0,20.7-8.9,40.3-24.4,54
				C225.7,351.8,225.4,351.9,225.2,351.9z"/>
			<path class="st1" d="M107.7,294.5C107.7,294.5,107.6,294.5,107.7,294.5c-0.6,0-1.1-0.5-1-1.1c1.8-30.9,23.1-57.1,53-65.2
				c0.6-0.1,1.1,0.2,1.3,0.8c0.1,0.6-0.2,1.1-0.8,1.3c-29,7.8-49.7,33.3-51.5,63.3C108.7,294.1,108.2,294.5,107.7,294.5z"/>
		</g>
		<path class="st1" d="M154.8,365.5c-0.1,0-0.2,0-0.4-0.1c-16.7-5.9-30.5-17.7-39.1-33.2c-0.3-0.5-0.1-1.2,0.4-1.4
			c0.5-0.3,1.2-0.1,1.4,0.4c8.3,15.1,21.8,26.5,37.9,32.2c0.6,0.2,0.8,0.8,0.6,1.4C155.6,365.3,155.2,365.5,154.8,365.5z"/>
		<path class="st1" d="M213.1,345.4c-0.6,2.2-6.7,6.1-12.6,9.3c-5.5,2.9-13,7-15.2,9.1c-1,1-1.6,0.7-1.5-0.1c0.1-0.5,0.4-2,0.6-3.3
			c0.2-1.3,0.6-1.6,1.4-2c0.8-0.3,5.9-2.4,13.5-6.3c6.1-3.1,10.7-6.8,11.9-7.9C213.3,342.2,213.5,343.8,213.1,345.4z"/>
	</g>
</g>
</svg>
